<?xml version="1.0" encoding="utf-8"?>
<!-- Generator: Adobe Illustrator 18.0.0, SVG Export Plug-In . SVG Version: 6.00 Build 0)  -->
<!DOCTYPE svg PUBLIC "-//W3C//DTD SVG 1.1//EN" "http://www.w3.org/Graphics/SVG/1.1/DTD/svg11.dtd" [
	<!ENTITY ns_extend "http://ns.adobe.com/Extensibility/1.0/">
	<!ENTITY ns_ai "http://ns.adobe.com/AdobeIllustrator/10.0/">
	<!ENTITY ns_graphs "http://ns.adobe.com/Graphs/1.0/">
	<!ENTITY ns_vars "http://ns.adobe.com/Variables/1.0/">
	<!ENTITY ns_imrep "http://ns.adobe.com/ImageReplacement/1.0/">
	<!ENTITY ns_sfw "http://ns.adobe.com/SaveForWeb/1.0/">
	<!ENTITY ns_custom "http://ns.adobe.com/GenericCustomNamespace/1.0/">
	<!ENTITY ns_adobe_xpath "http://ns.adobe.com/XPath/1.0/">
]>
<svg version="1.1" id="Layer_1" xmlns:x="&ns_extend;" xmlns:i="&ns_ai;" xmlns:graph="&ns_graphs;"
	 xmlns="http://www.w3.org/2000/svg" xmlns:xlink="http://www.w3.org/1999/xlink" x="0px" y="0px" viewBox="0 0 16.6 11.5"
	 enable-background="new 0 0 16.6 11.5" xml:space="preserve">
<metadata>
	<sfw  xmlns="&ns_sfw;">
		<slices></slices>
		<sliceSourceBounds  width="16383" height="125.5" x="-7795" y="-316" bottomLeftOrigin="true"></sliceSourceBounds>
	</sfw>
</metadata>
<g>
	<path fill="#71C9BD" d="M54.8,17.7c0,0.6,0,1.3,0,1.9c0,0,0-0.1,0.1-0.1c0.4-0.6,0.8-1,1.4-1.4c0.6-0.4,1.2-0.6,1.9-0.7
		c0.9-0.1,1.7,0,2.5,0.2c1.3,0.4,2.2,1.3,2.8,2.6c0.3,0.7,0.5,1.4,0.5,2.1c0,0.4,0.1,0.8,0.1,1.2c0,2.5,0,5,0,7.4c0,0,0,0.1,0,0.1
		c-1.5,0-3,0-4.5,0c0,0,0-0.1,0-0.1c0-2.4,0-4.8,0-7.2c0-0.5-0.1-1-0.2-1.5c-0.3-0.9-1-1.4-1.9-1.4c-1.2-0.1-2.2,0.7-2.5,1.9
		c-0.1,0.3-0.1,0.5-0.1,0.8c0,2.5,0,5,0,7.5c0,0,0,0.1,0,0.1c-1.5,0-3,0-4.5,0c0-4.5,0-9,0-13.5C51.8,17.7,53.3,17.7,54.8,17.7z"/>
	<path fill="#71C9BD" d="M43.3,17.7c1.5,0,3,0,4.5,0c0,4.5,0,9,0,13.5c-1.5,0-3,0-4.5,0C43.3,26.7,43.3,22.2,43.3,17.7z"/>
	<path fill="#71C9BD" d="M45.6,11.1c0.5,0,1,0.1,1.4,0.4c0.6,0.4,1,0.9,1,1.7c0.1,0.7-0.1,1.4-0.6,1.9c-0.4,0.4-0.8,0.6-1.3,0.7
		c-0.6,0.1-1.2,0.1-1.8-0.2c-0.9-0.4-1.3-1.3-1.3-2.2c0.1-1.1,0.8-1.9,2-2.1C45.2,11.2,45.4,11.2,45.6,11.1z"/>
</g>
<g>
	<path fill="#71C9BD" d="M-51.3,103.2c0,1.2,0,2.3,0,3.5c-0.2,0-0.4,0-0.6,0c-0.6,0-1.2,0-1.8,0c-0.5,0-0.7,0.2-0.7,0.7
		c0,0.8,0,1.5,0,2.3c1,0,2,0,3.1,0c-0.1,1.1-0.2,2.2-0.3,3.3c-0.9,0-1.8,0-2.8,0c0,3.4,0,6.7,0,10c-1.3,0-2.7,0-4,0
		c0-3.3,0-6.6,0-10c-0.7,0-1.4,0-2.1,0c0-1.2,0-2.3,0-3.4c0.7,0,1.4,0,2.1,0c0-0.4,0-0.7,0-1.1c0-0.7,0-1.3,0-2
		c0.1-1.8,1-3.1,2.9-3.3C-54.1,103.2-52.7,103.2-51.3,103.2z"/>
</g>
<g id="PfTRKw.tif">
	<g>
		<path fill="#71C9BD" d="M104,13.5C104,13.5,104,13.5,104,13.5c0,0.1,0,0.1-0.1,0.1c-0.5,0.8-1.1,1.4-1.9,2
			c-0.2,0.2-0.4,0.3-0.6,0.5c0,0,0,0.1,0,0.1c0,0.5,0,0.9,0,1.4c0,0.7-0.1,1.3-0.3,1.9c-0.3,1.6-0.9,3.1-1.7,4.5
			c-1.1,1.9-2.5,3.5-4.4,4.8C93,30.3,90.6,31,88,31.1c0,0-0.1,0-0.1,0c-0.5,0-1,0-1.4,0c0,0-0.1,0-0.1,0c-0.3,0-0.5,0-0.8-0.1
			c-0.6-0.1-1.2-0.2-1.8-0.3c-1.5-0.4-2.9-1-4.2-1.8c0,0,0,0-0.1-0.1c0.9,0.1,1.8,0.1,2.6,0c0.9-0.1,1.7-0.4,2.5-0.7
			c0.8-0.3,2.1-1.1,2.2-1.3c-1.1,0-2-0.4-2.9-1c-0.9-0.6-1.4-1.5-1.8-2.5c0.8,0.1,1.5,0.1,2.2-0.1c-0.8-0.2-1.5-0.5-2.1-1
			c-0.6-0.5-1.1-1.1-1.4-1.8c-0.3-0.7-0.5-1.5-0.5-2.2c0.4,0.2,0.7,0.3,1.1,0.4c0.4,0.1,0.8,0.2,1.1,0.2c-1.1-0.8-1.8-1.8-2.1-3.1
			c-0.3-1.3-0.1-2.5,0.5-3.7c0,0,0,0,0,0c0,0,0,0,0.1,0.1c1.6,1.9,3.5,3.3,5.7,4.2c1,0.4,2,0.7,3,0.8c0.5,0.1,0.9,0.1,1.4,0.2
			c0.1,0,0.1,0,0.2,0c0,0,0,0,0,0c0,0,0,0,0,0c-0.1-0.6-0.1-1.3,0-1.9c0.2-0.9,0.6-1.8,1.2-2.5c0.9-1,1.9-1.5,3.2-1.7
			c0.1,0,0.2,0,0.2,0c0.2,0,0.4,0,0.6,0c0,0,0.1,0,0.1,0c0.2,0,0.3,0,0.5,0.1c1.1,0.2,2,0.7,2.7,1.4c0.1,0.1,0.1,0.1,0.2,0.1
			c0,0,0,0,0,0c1.1-0.2,2.1-0.6,3-1.1c0,0,0,0,0.1,0c-0.4,1.2-1.1,2.1-2.1,2.8c0.1,0,0.3,0,0.4-0.1C102.4,14.1,103.2,13.9,104,13.5
			C103.9,13.5,104,13.5,104,13.5z"/>
	</g>
</g>
<g id="GdFVXx.tif">
	<g>
		<path fill="#71C9BD" d="M26.4,105.5c0.3,0,0.5,0,0.8,0c0,0,0,0,0.1,0c0.4,0,0.9,0.1,1.3,0.2c1,0.2,1.9,0.6,2.7,1.2
			c1.3,0.9,2.2,2.1,2.6,3.7c0.1,0.3,0.2,0.7,0.2,1c0,0,0,0,0,0.1c0,0.4,0,0.7,0,1.1c0,0,0,0.1,0,0.1c0,0.3,0,0.6-0.1,0.9
			c-0.1,0.6-0.2,1.2-0.4,1.8c-0.3,0.9-0.8,1.8-1.4,2.6c-0.6,0.7-1.2,1.2-2,1.5c-0.6,0.2-1.1,0.4-1.7,0.4c-0.4,0-0.7,0-1.1,0
			c-0.6-0.1-1.1-0.3-1.5-0.6c-0.3-0.2-0.5-0.4-0.6-0.7c0,0,0,0,0,0c0,0,0,0.1,0,0.1c-0.2,0.9-0.5,1.8-0.7,2.7
			c-0.2,0.6-0.4,1.2-0.7,1.8c-0.4,0.8-0.9,1.6-1.5,2.4c0,0-0.1,0.1-0.1,0.1c0,0-0.1,0-0.1,0c-0.1,0-0.1-0.1-0.1-0.2
			c0-0.2-0.1-0.4-0.1-0.6c0-0.4-0.1-0.8-0.1-1.3c0-0.5,0-0.9,0-1.4c0-0.3,0.1-0.7,0.2-1c0.1-0.6,0.3-1.2,0.4-1.8
			c0.3-1.4,0.7-2.9,1-4.3c0-0.1,0-0.2,0-0.3c-0.2-0.6-0.3-1.1-0.3-1.7c0-0.4,0.1-0.8,0.2-1.2c0.2-0.4,0.4-0.8,0.7-1.2
			c0.5-0.4,1-0.6,1.6-0.5c0.4,0.1,0.8,0.3,1,0.7c0.2,0.3,0.2,0.6,0.2,0.9c0,0.3,0,0.7-0.1,1c-0.1,0.5-0.2,0.9-0.4,1.4
			c-0.2,0.6-0.4,1.1-0.5,1.7c-0.1,0.3-0.1,0.6,0,0.9c0.2,0.6,0.6,1,1.1,1.2c0.5,0.2,1,0.1,1.4,0c0.5-0.2,0.9-0.4,1.2-0.8
			c0.3-0.3,0.5-0.7,0.7-1c0.5-0.9,0.7-1.9,0.9-3c0-0.3,0-0.5,0.1-0.8c0-0.6,0-1.1-0.2-1.7c-0.3-1.1-0.9-1.9-1.9-2.4
			c-0.6-0.3-1.2-0.5-1.9-0.6c-0.4-0.1-0.8-0.1-1.2,0c-0.5,0-0.9,0.1-1.4,0.2c-1.2,0.3-2.1,1-2.8,2c-0.6,0.8-0.9,1.6-1,2.6
			c-0.1,0.5-0.1,0.9,0,1.4c0.1,0.5,0.3,1,0.6,1.4c0.1,0.1,0.1,0.2,0.2,0.3c0.1,0.1,0.1,0.2,0.1,0.4c0,0,0,0.1,0,0.1
			c-0.1,0.3-0.2,0.6-0.2,0.9c0,0.1,0,0.1-0.1,0.2c-0.1,0.1-0.2,0.2-0.3,0.2c-0.1,0-0.2,0-0.2-0.1c-0.4-0.2-0.8-0.4-1.1-0.8
			c-0.4-0.4-0.6-0.9-0.8-1.4c-0.2-0.6-0.3-1.1-0.4-1.7c0-0.1,0-0.1,0-0.2c0-0.2,0-0.4,0-0.7c0-0.1,0-0.1,0-0.2c0-0.3,0.1-0.6,0.2-1
			c0.3-1.3,0.9-2.4,1.9-3.3c0.8-0.8,1.7-1.4,2.8-1.8c0.9-0.3,1.8-0.5,2.8-0.6C26.3,105.5,26.4,105.5,26.4,105.5z"/>
	</g>
</g>
<g id="OZ9Xxg.tif">
	<g>
		<path fill="#71C9BD" d="M166,11.2c0.9,0,1.9,0,2.8,0c0,0,0,0,0,0c0,1.6,0,3.3,0,4.9c0,0,0,0,0,0.1c1.6,0,3.2,0,4.7,0
			c0,1.1,0,2.1,0,3.1c-1.6,0-3.2,0-4.7,0c0,0,0,0.1,0,0.1c0,1.7,0,3.5,0,5.2c0,0.6,0,1.1,0.1,1.7c0.1,0.5,0.3,0.9,0.7,1.1
			c0.2,0.1,0.4,0.2,0.6,0.3c0.6,0.2,1.2,0.2,1.9,0.1c0.7-0.1,1.4-0.4,2-0.8c0,0,0.1,0,0.1,0c0,1,0,2.1,0,3.1c0,0,0,0-0.1,0
			c-1.2,0.6-2.5,1-3.9,1c-0.9,0-1.7,0-2.5-0.2c-0.9-0.2-1.7-0.6-2.4-1.3c-0.4-0.4-0.8-0.9-1-1.5c-0.1-0.5-0.2-1.1-0.2-1.6
			c0-2.4,0-4.7,0-7.1c0,0,0-0.1,0-0.1c-0.7,0-1.5,0-2.2,0c0,0,0-0.1,0-0.1c0-0.9,0-1.7,0-2.6c0-0.2,0-0.2,0.2-0.3
			c1.3-0.5,2.4-1.3,3.1-2.6C165.6,13,165.8,12.1,166,11.2z"/>
	</g>
</g>
<path fill="#71C9BD" d="M213.4,14.1c-1.9-1.9-4.4-3-7.1-3c-5.5,0-10,4.5-10,10c0,5.5,4.5,10,10,10h0c5.5,0,10-4.5,10-10
	C216.2,18.5,215.2,16,213.4,14.1z M210.8,28.1c-0.2-2-0.7-4.1-1.6-6.3c0.7-0.1,1.4-0.1,2.1-0.1c1.1,0.1,2.1,0.3,3.3,0.7
	C214.1,24.8,212.8,26.8,210.8,28.1z M202.6,13.6L202.6,13.6c1.1,1.5,2.1,3.1,3,4.8c-1.5,0.5-3.1,0.7-4.7,0.7h0
	c-0.9,0-1.8-0.1-2.8-0.2c0.4-1.3,1-2.4,1.9-3.4C200.8,14.7,201.6,14.1,202.6,13.6z M207.2,17.7c-0.9-1.7-1.9-3.2-3-4.7
	c1-0.2,2-0.3,3-0.2c1.8,0.2,3.3,1,4.1,1.7C210.2,15.9,208.8,17,207.2,17.7z M206.4,19.8l0.4,0.9c-1.4,0.5-2.7,1.3-4,2.4
	c-1.1,1-2.1,2.1-3,3.4c-1.4-1.8-2.1-3.7-1.9-6C201,20.9,203.8,20.7,206.4,19.8z M208.5,20.3l-0.5-1.1c1.7-0.8,3.3-2,4.6-3.5
	c1.2,1.4,1.9,3.1,2,5c-1.3-0.4-2.6-0.6-3.9-0.6C210,20.1,209.2,20.1,208.5,20.3z M201,27.7c0.9-1.4,2-2.7,3.3-3.7
	c1-0.8,2.1-1.4,3.2-1.8l0.1,0.3c0.2,0.4,0.3,0.9,0.5,1.3c0.5,1.5,0.9,3.1,1,4.6l0,0.2c0,0.1,0,0.2,0,0.3c-1,0.3-1.9,0.5-2.9,0.5
	c0,0,0,0,0,0c-0.2,0-0.5,0-0.7,0C203.9,29.3,202.4,28.7,201,27.7C201.1,27.7,201.1,27.7,201,27.7z M206.3,30.9L206.3,30.9
	L206.3,30.9L206.3,30.9z"/>
<g id="_x34_nSiYn.tif">
	<g>
		<path fill="#71C9BD" d="M137.9,31.1c-5.3,0-10.6,0-15.9,0c0,0,0,0,0,0c-0.5-0.1-0.9-0.3-1.3-0.6c-0.4-0.4-0.6-0.8-0.7-1.3
			c0,0,0-0.1,0-0.1c0-5.2,0-10.5,0-15.7c0-0.1,0-0.1,0-0.2c0.2-0.9,0.9-1.7,1.8-1.9c0.1,0,0.2,0,0.3,0c5.2,0,10.5,0,15.7,0
			c0.1,0,0.2,0,0.3,0c0.9,0.2,1.6,0.9,1.8,1.8c0,0.1,0,0.1,0,0.2c0,5.3,0,10.6,0,15.9c0,0,0,0.1,0,0.1c-0.2,0.9-0.9,1.6-1.8,1.8
			C138,31.1,137.9,31.1,137.9,31.1z M122.2,19.6c0,0,0,0.1,0,0.1c0,2.8,0,5.5,0,8.3c0,0,0,0.1,0,0.1c0,0.2,0.1,0.4,0.3,0.5
			c0.2,0.1,0.4,0.2,0.6,0.2c4.6,0,9.1,0,13.7,0c0,0,0.1,0,0.1,0c0.2,0,0.4-0.1,0.5-0.3c0.1-0.2,0.2-0.3,0.2-0.5c0-2.8,0-5.6,0-8.3
			c0,0,0,0,0,0c0,0,0,0,0-0.1c-0.6,0-1.1,0-1.7,0c0.3,1.3,0.3,2.5-0.2,3.7c-0.5,1.2-1.2,2.2-2.3,2.9c-1.9,1.3-4.5,1.4-6.5,0.2
			c-1-0.6-1.8-1.4-2.4-2.4c-0.7-1.4-0.9-2.9-0.5-4.4C123.4,19.6,122.8,19.6,122.2,19.6z M133.7,21.1c0-2.1-1.7-3.8-3.8-3.8
			c-2.2,0-3.8,1.8-3.8,3.8c0,2.1,1.7,3.8,3.8,3.8C132,25,133.7,23.3,133.7,21.1z M135.7,17.3c0.4,0,0.8,0,1.2,0
			c0.4,0,0.8-0.3,0.8-0.8c0-0.8,0-1.5,0-2.3c0-0.4-0.3-0.8-0.8-0.8c-0.8,0-1.5,0-2.3,0c-0.4,0-0.8,0.3-0.8,0.8c0,0.8,0,1.5,0,2.3
			c0,0.1,0,0.1,0,0.2c0.1,0.3,0.4,0.6,0.7,0.6C134.9,17.3,135.3,17.3,135.7,17.3z"/>
	</g>
</g>
<g id="RfzbII.tif">
	<g>
		<path fill="#71C9BD" d="M10.3,109.1c0,0.4,0,0.8,0,1.2c0,0,0,0.1,0,0.1c0,0,0,0.1,0,0.1c0,0.3-0.1,0.5-0.1,0.8
			c-0.2,0.7-0.4,1.4-0.7,2.1C9,114.3,8.5,115.1,8,116c-0.7,1.2-1.5,2.3-2.4,3.3c-0.8,1-1.7,2.1-2.6,3c-0.6,0.6-1.3,1.2-2,1.7
			c-0.5,0.4-1,0.7-1.6,1c-0.4,0.2-0.8,0.3-1.3,0.4c-0.1,0-0.2,0-0.3,0c-0.2,0-0.3,0-0.5,0c0,0,0,0,0,0c-0.1,0-0.2,0-0.2,0
			c-0.4-0.1-0.7-0.3-1-0.5c-0.3-0.3-0.6-0.6-0.8-1c-0.4-0.5-0.6-1.1-0.9-1.7c-0.1-0.2-0.2-0.4-0.2-0.6c-0.6-2.1-1.1-4.2-1.7-6.2
			c-0.2-0.7-0.4-1.3-0.6-2c-0.2-0.5-0.4-0.9-0.6-1.3c-0.1-0.2-0.3-0.5-0.5-0.7c-0.1-0.1-0.3-0.2-0.5-0.3c-0.1,0-0.3-0.1-0.4,0
			c-0.1,0.1-0.3,0.1-0.4,0.2c-0.4,0.2-0.7,0.5-1.1,0.7c0,0-0.1,0-0.1,0.1c0,0,0-0.1-0.1-0.1c-0.3-0.4-0.6-0.8-1-1.2c0,0,0,0-0.1-0.1
			c0,0,0,0,0,0c0,0,0,0,0.1,0c0.1-0.1,0.2-0.2,0.3-0.3c0.8-0.7,1.5-1.3,2.3-2c0.5-0.4,1-0.9,1.5-1.3c0.5-0.4,0.9-0.7,1.4-1
			c0.3-0.1,0.5-0.3,0.8-0.4c0.4-0.1,0.8-0.1,1.2-0.1c0.4,0.1,0.8,0.2,1.2,0.5c0.3,0.3,0.6,0.6,0.8,1c0.3,0.6,0.5,1.2,0.6,1.9
			c0.1,0.4,0.1,0.8,0.2,1.3c0.1,0.8,0.3,1.6,0.4,2.3c0.1,0.8,0.3,1.7,0.5,2.5c0.1,0.6,0.3,1.1,0.5,1.7c0.1,0.3,0.3,0.6,0.4,0.9
			c0.1,0.1,0.2,0.2,0.3,0.3c0.2,0.1,0.4,0.2,0.6,0.1c0.1-0.1,0.2-0.1,0.3-0.2c0.2-0.2,0.4-0.4,0.6-0.6c0.4-0.4,0.7-0.9,1-1.3
			c0.4-0.7,0.8-1.3,1.1-2c0.2-0.5,0.4-1,0.5-1.6c0-0.3,0-0.6,0-0.9c-0.1-0.6-0.4-0.9-1-1c-0.4-0.1-0.7-0.1-1.1,0
			c-0.4,0.1-0.7,0.2-1.1,0.3c0,0,0,0-0.1,0c0,0,0-0.1,0-0.1c0.2-0.5,0.4-1.1,0.6-1.6c0.3-0.7,0.8-1.4,1.3-2c1-1.1,2.3-1.7,3.8-1.8
			c0,0,0.1,0,0.1,0c0.3,0,0.5,0,0.8,0c0,0,0.1,0,0.1,0c0.3,0,0.5,0.1,0.8,0.1c0.8,0.2,1.4,0.7,1.8,1.4c0.3,0.6,0.5,1.2,0.5,1.9
			C10.3,109,10.3,109,10.3,109.1z"/>
	</g>
</g>
<g>
	<line fill="none" stroke="#58585B" stroke-miterlimit="10" x1="0.7" y1="24.2" x2="16.6" y2="24.2"/>
	<polyline fill="none" stroke="#58585B" stroke-miterlimit="10" points="11.6,18.8 16.6,24.2 11.6,29.6 	"/>
</g>
<g>
	<line fill="none" stroke="#58585B" stroke-miterlimit="10" x1="16.6" y1="5.7" x2="0.7" y2="5.7"/>
	<polyline fill="none" stroke="#58585B" stroke-miterlimit="10" points="5.8,11.1 0.7,5.7 5.8,0.3 	"/>
</g>
</svg>
