<svg version="1.1" id="Layer_1" xmlns:x="&ns_extend;" xmlns:i="&ns_ai;" xmlns:graph="&ns_graphs;"
	 xmlns="http://www.w3.org/2000/svg" xmlns:xlink="http://www.w3.org/1999/xlink" x="0px" y="0px" viewBox="0 0 20 20"
	 enable-background="new 0 0 20 20" xml:space="preserve">
<metadata>
	<sfw  xmlns="&ns_sfw;">
		<slices></slices>
		<sliceSourceBounds  width="16383" height="20" x="-7795" y="-221.7" bottomLeftOrigin="true"></sliceSourceBounds>
	</sfw>
</metadata>
<path fill="#71C9BD" d="M17.1,3c-1.9-1.9-4.4-3-7.1-3C4.5,0,0,4.5,0,10c0,5.5,4.5,10,10,10h0c5.5,0,10-4.5,10-10
	C20,7.4,19,4.9,17.1,3z M14.5,17c-0.2-2-0.7-4.1-1.6-6.3c0.7-0.1,1.4-0.1,2.1-0.1c1.1,0.1,2.1,0.3,3.3,0.7
	C17.8,13.7,16.6,15.7,14.5,17z M6.4,2.5L6.4,2.5c1.1,1.5,2.1,3.1,3,4.8C7.9,7.7,6.4,8,4.7,8h0C3.8,8,2.9,7.9,2,7.7
	c0.4-1.3,1-2.4,1.9-3.4C4.5,3.6,5.4,3,6.4,2.5z M11,6.6c-0.9-1.7-1.9-3.2-3-4.7c1-0.2,2-0.3,3-0.2c1.8,0.2,3.3,1,4.1,1.7
	C14,4.8,12.6,5.8,11,6.6z M10.2,8.7l0.4,0.9c-1.4,0.5-2.7,1.3-4,2.4c-1.1,1-2.1,2.1-3,3.4c-1.4-1.8-2.1-3.7-1.9-6
	C4.7,9.8,7.6,9.6,10.2,8.7z M12.3,9.1l-0.5-1.1c1.7-0.8,3.3-2,4.6-3.5c1.2,1.4,1.9,3.1,2,5c-1.3-0.4-2.6-0.6-3.9-0.6
	C13.7,8.9,13,9,12.3,9.1z M4.8,16.5c0.9-1.4,2-2.7,3.3-3.7c1-0.8,2.1-1.4,3.2-1.8l0.1,0.3c0.2,0.4,0.3,0.9,0.5,1.3
	c0.5,1.5,0.9,3.1,1,4.6l0,0.2c0,0.1,0,0.2,0,0.3c-1,0.3-1.9,0.5-2.9,0.5c0,0,0,0,0,0c-0.2,0-0.5,0-0.7,0C7.7,18.2,6.2,17.6,4.8,16.5
	C4.8,16.6,4.8,16.5,4.8,16.5z M10,19.8L10,19.8L10,19.8L10,19.8z"/>
</svg>
