<svg width="20" height="20" viewBox="0 0 20 20" xmlns="http://www.w3.org/2000/svg"><title>instagram</title><desc>Created with Sketch.</desc><path d="M18 20H2c-.5-.1-.9-.3-1.3-.6-.4-.5-.6-.9-.7-1.4V1.9C.2 1 .9.2 1.9 0h16.2c.9.2 1.6.9 1.8 1.8.1.1.1.2.1.2v16c-.2.9-.9 1.6-1.8 1.8l-.2.2zM2.3 8.5V17c0 .2.1.4.3.5.2.1.4.2.6.2H17c.2 0 .4-.1.5-.3.1-.2.2-.3.2-.5V8.5H16c.3 1.3.3 2.5-.2 3.7-.5 1.2-1.2 2.2-2.3 2.9-1.9 1.3-4.5 1.4-6.5.2-1-.6-1.8-1.4-2.4-2.4-.8-1.4-.9-2.9-.6-4.4H2.3zM13.8 10c0-2.1-1.7-3.8-3.8-3.8C7.8 6.2 6.2 8 6.2 10c0 2.1 1.7 3.8 3.8 3.8 2.1 0 3.8-1.6 3.8-3.8zm2-3.8H17c.4 0 .8-.3.8-.8V3.1c0-.4-.3-.8-.8-.8h-2.3c-.4 0-.8.3-.8.8v2.5c.1.3.4.6.7.6h1.2z" fill="#71C9BD" fill-rule="evenodd"/></svg>