<?xml version="1.0" encoding="utf-8"?>
<!-- Generator: Adobe Illustrator 18.0.0, SVG Export Plug-In . SVG Version: 6.00 Build 0)  -->
<!DOCTYPE svg PUBLIC "-//W3C//DTD SVG 1.1//EN" "http://www.w3.org/Graphics/SVG/1.1/DTD/svg11.dtd" [
	<!ENTITY ns_extend "http://ns.adobe.com/Extensibility/1.0/">
	<!ENTITY ns_ai "http://ns.adobe.com/AdobeIllustrator/10.0/">
	<!ENTITY ns_graphs "http://ns.adobe.com/Graphs/1.0/">
	<!ENTITY ns_vars "http://ns.adobe.com/Variables/1.0/">
	<!ENTITY ns_imrep "http://ns.adobe.com/ImageReplacement/1.0/">
	<!ENTITY ns_sfw "http://ns.adobe.com/SaveForWeb/1.0/">
	<!ENTITY ns_custom "http://ns.adobe.com/GenericCustomNamespace/1.0/">
	<!ENTITY ns_adobe_xpath "http://ns.adobe.com/XPath/1.0/">
]>
<svg version="1.1" id="Layer_1" xmlns:x="&ns_extend;" xmlns:i="&ns_ai;" xmlns:graph="&ns_graphs;"
	 xmlns="http://www.w3.org/2000/svg" xmlns:xlink="http://www.w3.org/1999/xlink" x="0px" y="0px" viewBox="0 0 44 44"
	 enable-background="new 0 0 44 44" xml:space="preserve">
<metadata>
	<sfw  xmlns="&ns_sfw;">
		<slices></slices>
		<sliceSourceBounds  width="44" height="44" x="0" y="0" bottomLeftOrigin="true"></sliceSourceBounds>
	</sfw>
</metadata>
<g id="_x34_nSiYn.tif">
	<g>
		<path fill="#44A092" d="M39.6,44c-11.7,0-23.3,0-35.2,0l0,0c-1.1-0.2-2-0.7-2.9-1.3c-0.9-1.1-1.3-2-1.5-3.1v-0.2
			C0,27.7,0,16.3,0,4.6c0,0,0-0.2,0-0.4c0.4-2,2-3.7,4.2-4.2c0.2,0,0.2,0,0.4,0c11.4,0,23.1,0,34.5,0c0.4,0,0.4,0,0.7,0
			c2,0.4,3.5,2,4,4C44,4.2,44,4.4,44,4.4c0,11.7,0,23.3,0,35v0.2c-0.4,2-2,3.5-4,4C39.8,43.8,39.6,44,39.6,44z M5.1,18.7v0.2
			c0,6.2,0,12.1,0,18.3v0.2c0,0.4,0.2,0.9,0.7,1.1s0.9,0.4,1.3,0.4c10.1,0,20,0,30.1,0h0.2c0.4,0,0.9-0.2,1.1-0.7
			c0.2-0.4,0.4-0.7,0.4-1.1c0-6.2,0-12.3,0-18.3l0,0c0,0,0,0,0-0.2c-1.3,0-2.4,0-3.7,0c0.7,2.9,0.7,5.5-0.4,8.1
			c-1.1,2.6-2.6,4.8-5.1,6.4c-4.2,2.9-9.9,3.1-14.3,0.4c-2.2-1.3-4-3.1-5.3-5.3c-1.8-3.1-2-6.4-1.3-9.7C7.7,18.7,6.4,18.7,5.1,18.7z
			 M30.4,22c0-4.6-3.7-8.4-8.4-8.4c-4.8,0-8.4,4-8.4,8.4c0,4.6,3.7,8.4,8.4,8.4S30.4,26.8,30.4,22z M34.8,13.6c0.9,0,1.8,0,2.6,0
			c0.9,0,1.8-0.7,1.8-1.8c0-1.8,0-3.3,0-5.1c0-0.9-0.7-1.8-1.8-1.8c-1.8,0-3.3,0-5.1,0c-0.9,0-1.8,0.7-1.8,1.8c0,1.8,0,3.3,0,5.1
			c0,0.2,0,0.2,0,0.4c0.2,0.7,0.9,1.3,1.5,1.3C33,13.6,33.9,13.6,34.8,13.6z"/>
	</g>
</g>
</svg>
