<?xml version="1.0" encoding="utf-8"?>
<!-- Generator: Adobe Illustrator 18.0.0, SVG Export Plug-In . SVG Version: 6.00 Build 0)  -->
<!DOCTYPE svg PUBLIC "-//W3C//DTD SVG 1.1//EN" "http://www.w3.org/Graphics/SVG/1.1/DTD/svg11.dtd" [
	<!ENTITY ns_extend "http://ns.adobe.com/Extensibility/1.0/">
	<!ENTITY ns_ai "http://ns.adobe.com/AdobeIllustrator/10.0/">
	<!ENTITY ns_graphs "http://ns.adobe.com/Graphs/1.0/">
	<!ENTITY ns_vars "http://ns.adobe.com/Variables/1.0/">
	<!ENTITY ns_imrep "http://ns.adobe.com/ImageReplacement/1.0/">
	<!ENTITY ns_sfw "http://ns.adobe.com/SaveForWeb/1.0/">
	<!ENTITY ns_custom "http://ns.adobe.com/GenericCustomNamespace/1.0/">
	<!ENTITY ns_adobe_xpath "http://ns.adobe.com/XPath/1.0/">
]>
<svg version="1.1" id="Layer_1" xmlns:x="&ns_extend;" xmlns:i="&ns_ai;" xmlns:graph="&ns_graphs;"
	 xmlns="http://www.w3.org/2000/svg" xmlns:xlink="http://www.w3.org/1999/xlink" x="0px" y="0px" viewBox="0 0 6.1 11.5"
	 enable-background="new 0 0 6.1 11.5" xml:space="preserve">
<metadata>
	<sfw  xmlns="&ns_sfw;">
		<slices></slices>
		<sliceSourceBounds  width="16383" height="169.1" x="-7795" y="-316" bottomLeftOrigin="true"></sliceSourceBounds>
	</sfw>
</metadata>
<g>
	<path fill="#71C9BD" d="M-0.5,61.3c0,0.6,0,1.3,0,1.9c0,0,0-0.1,0.1-0.1c0.4-0.6,0.8-1,1.4-1.4c0.6-0.4,1.2-0.6,1.9-0.7
		c0.9-0.1,1.7,0,2.5,0.2c1.3,0.4,2.2,1.3,2.8,2.6c0.3,0.7,0.5,1.4,0.5,2.1c0,0.4,0.1,0.8,0.1,1.2c0,2.5,0,5,0,7.4c0,0,0,0.1,0,0.1
		c-1.5,0-3,0-4.5,0c0,0,0-0.1,0-0.1c0-2.4,0-4.8,0-7.2c0-0.5-0.1-1-0.2-1.5c-0.3-0.9-1-1.4-1.9-1.4c-1.2-0.1-2.2,0.7-2.5,1.9
		c-0.1,0.3-0.1,0.5-0.1,0.8c0,2.5,0,5,0,7.5c0,0,0,0.1,0,0.1c-1.5,0-3,0-4.5,0c0-4.5,0-9,0-13.5C-3.5,61.3-2,61.3-0.5,61.3z"/>
	<path fill="#71C9BD" d="M-12,61.3c1.5,0,3,0,4.5,0c0,4.5,0,9,0,13.5c-1.5,0-3,0-4.5,0C-12,70.3-12,65.8-12,61.3z"/>
	<path fill="#71C9BD" d="M-9.7,54.8c0.5,0,1,0.1,1.4,0.4c0.6,0.4,1,0.9,1,1.7c0.1,0.7-0.1,1.4-0.6,1.9c-0.4,0.4-0.8,0.6-1.3,0.7
		c-0.6,0.1-1.2,0.1-1.8-0.2c-0.9-0.4-1.3-1.3-1.3-2.2c0.1-1.1,0.8-1.9,2-2.1C-10.1,54.8-9.9,54.8-9.7,54.8z"/>
</g>
<g>
	<path fill="#71C9BD" d="M-106.6,146.8c0,1.2,0,2.3,0,3.5c-0.2,0-0.4,0-0.6,0c-0.6,0-1.2,0-1.8,0c-0.5,0-0.7,0.2-0.7,0.7
		c0,0.8,0,1.5,0,2.3c1,0,2,0,3.1,0c-0.1,1.1-0.2,2.2-0.3,3.3c-0.9,0-1.8,0-2.8,0c0,3.4,0,6.7,0,10c-1.3,0-2.7,0-4,0
		c0-3.3,0-6.6,0-10c-0.7,0-1.4,0-2.1,0c0-1.2,0-2.3,0-3.4c0.7,0,1.4,0,2.1,0c0-0.4,0-0.7,0-1.1c0-0.7,0-1.3,0-2
		c0.1-1.8,1-3.1,2.9-3.3C-109.4,146.8-108,146.9-106.6,146.8z"/>
</g>
<g id="PfTRKw.tif">
	<g>
		<path fill="#71C9BD" d="M48.7,57.2C48.7,57.2,48.7,57.2,48.7,57.2c0,0.1,0,0.1-0.1,0.1c-0.5,0.8-1.1,1.4-1.9,2
			c-0.2,0.2-0.4,0.3-0.6,0.5c0,0,0,0.1,0,0.1c0,0.5,0,0.9,0,1.4c0,0.7-0.1,1.3-0.3,1.9c-0.3,1.6-0.9,3.1-1.7,4.5
			c-1.1,1.9-2.5,3.5-4.4,4.8c-2.2,1.4-4.5,2.2-7.1,2.3c0,0-0.1,0-0.1,0c-0.5,0-1,0-1.4,0c0,0-0.1,0-0.1,0c-0.3,0-0.5,0-0.8-0.1
			c-0.6-0.1-1.2-0.2-1.8-0.3c-1.5-0.4-2.9-1-4.2-1.8c0,0,0,0-0.1-0.1c0.9,0.1,1.8,0.1,2.6,0c0.9-0.1,1.7-0.4,2.5-0.7
			c0.8-0.3,2.1-1.1,2.2-1.3c-1.1,0-2-0.4-2.9-1c-0.9-0.6-1.4-1.5-1.8-2.5c0.8,0.1,1.5,0.1,2.2-0.1c-0.8-0.2-1.5-0.5-2.1-1
			c-0.6-0.5-1.1-1.1-1.4-1.8c-0.3-0.7-0.5-1.5-0.5-2.2c0.4,0.2,0.7,0.3,1.1,0.4c0.4,0.1,0.8,0.2,1.1,0.2c-1.1-0.8-1.8-1.8-2.1-3.1
			c-0.3-1.3-0.1-2.5,0.5-3.7c0,0,0,0,0,0c0,0,0,0,0.1,0.1c1.6,1.9,3.5,3.3,5.7,4.2c1,0.4,2,0.7,3,0.8C35,60.9,35.5,61,36,61
			c0.1,0,0.1,0,0.2,0c0,0,0,0,0,0c0,0,0,0,0,0c-0.1-0.6-0.1-1.3,0-1.9c0.2-0.9,0.6-1.8,1.2-2.5c0.9-1,1.9-1.5,3.2-1.7
			c0.1,0,0.2,0,0.2,0c0.2,0,0.4,0,0.6,0c0,0,0.1,0,0.1,0c0.2,0,0.3,0,0.5,0.1c1.1,0.2,2,0.7,2.7,1.4c0.1,0.1,0.1,0.1,0.2,0.1
			c0,0,0,0,0,0c1.1-0.2,2.1-0.6,3-1.1c0,0,0,0,0.1,0c-0.4,1.2-1.1,2.1-2.1,2.8c0.1,0,0.3,0,0.4-0.1C47.1,57.8,47.8,57.5,48.7,57.2
			C48.6,57.2,48.7,57.2,48.7,57.2z"/>
	</g>
</g>
<g id="GdFVXx.tif">
	<g>
		<path fill="#71C9BD" d="M-28.9,149.1c0.3,0,0.5,0,0.8,0c0,0,0,0,0.1,0c0.4,0,0.9,0.1,1.3,0.2c1,0.2,1.9,0.6,2.7,1.2
			c1.3,0.9,2.2,2.1,2.6,3.7c0.1,0.3,0.2,0.7,0.2,1c0,0,0,0,0,0.1c0,0.4,0,0.7,0,1.1c0,0,0,0.1,0,0.1c0,0.3,0,0.6-0.1,0.9
			c-0.1,0.6-0.2,1.2-0.4,1.8c-0.3,0.9-0.8,1.8-1.4,2.6c-0.6,0.7-1.2,1.2-2,1.5c-0.6,0.2-1.1,0.4-1.7,0.4c-0.4,0-0.7,0-1.1,0
			c-0.6-0.1-1.1-0.3-1.5-0.6c-0.3-0.2-0.5-0.4-0.6-0.7c0,0,0,0,0,0c0,0,0,0.1,0,0.1c-0.2,0.9-0.5,1.8-0.7,2.7
			c-0.2,0.6-0.4,1.2-0.7,1.8c-0.4,0.8-0.9,1.6-1.5,2.4c0,0-0.1,0.1-0.1,0.1c0,0-0.1,0-0.1,0c-0.1,0-0.1-0.1-0.1-0.2
			c0-0.2-0.1-0.4-0.1-0.6c0-0.4-0.1-0.8-0.1-1.3c0-0.5,0-0.9,0-1.4c0-0.3,0.1-0.7,0.2-1c0.1-0.6,0.3-1.2,0.4-1.8
			c0.3-1.4,0.7-2.9,1-4.3c0-0.1,0-0.2,0-0.3c-0.2-0.6-0.3-1.1-0.3-1.7c0-0.4,0.1-0.8,0.2-1.2c0.2-0.4,0.4-0.8,0.7-1.2
			c0.5-0.4,1-0.6,1.6-0.5c0.4,0.1,0.8,0.3,1,0.7c0.2,0.3,0.2,0.6,0.2,0.9c0,0.3,0,0.7-0.1,1c-0.1,0.5-0.2,0.9-0.4,1.4
			c-0.2,0.6-0.4,1.1-0.5,1.7c-0.1,0.3-0.1,0.6,0,0.9c0.2,0.6,0.6,1,1.1,1.2c0.5,0.2,1,0.1,1.4,0c0.5-0.2,0.9-0.4,1.2-0.8
			c0.3-0.3,0.5-0.7,0.7-1c0.5-0.9,0.7-1.9,0.9-3c0-0.3,0-0.5,0.1-0.8c0-0.6,0-1.1-0.2-1.7c-0.3-1.1-0.9-1.9-1.9-2.4
			c-0.6-0.3-1.2-0.5-1.9-0.6c-0.4-0.1-0.8-0.1-1.2,0c-0.5,0-0.9,0.1-1.4,0.2c-1.2,0.3-2.1,1-2.8,2c-0.6,0.8-0.9,1.6-1,2.6
			c-0.1,0.5-0.1,0.9,0,1.4c0.1,0.5,0.3,1,0.6,1.4c0.1,0.1,0.1,0.2,0.2,0.3c0.1,0.1,0.1,0.2,0.1,0.4c0,0,0,0.1,0,0.1
			c-0.1,0.3-0.2,0.6-0.2,0.9c0,0.1,0,0.1-0.1,0.2c-0.1,0.1-0.2,0.2-0.3,0.2c-0.1,0-0.2,0-0.2-0.1c-0.4-0.2-0.8-0.4-1.1-0.8
			c-0.4-0.4-0.6-0.9-0.8-1.4c-0.2-0.6-0.3-1.1-0.4-1.7c0-0.1,0-0.1,0-0.2c0-0.2,0-0.4,0-0.7c0-0.1,0-0.1,0-0.2c0-0.3,0.1-0.6,0.2-1
			c0.3-1.3,0.9-2.4,1.9-3.3c0.8-0.8,1.7-1.4,2.8-1.8c0.9-0.3,1.8-0.5,2.8-0.6C-29,149.2-28.9,149.1-28.9,149.1z"/>
	</g>
</g>
<g id="OZ9Xxg.tif">
	<g>
		<path fill="#71C9BD" d="M110.6,54.8c0.9,0,1.9,0,2.8,0c0,0,0,0,0,0c0,1.6,0,3.3,0,4.9c0,0,0,0,0,0.1c1.6,0,3.2,0,4.7,0
			c0,1.1,0,2.1,0,3.1c-1.6,0-3.2,0-4.7,0c0,0,0,0.1,0,0.1c0,1.7,0,3.5,0,5.2c0,0.6,0,1.1,0.1,1.7c0.1,0.5,0.3,0.9,0.7,1.1
			c0.2,0.1,0.4,0.2,0.6,0.3c0.6,0.2,1.2,0.2,1.9,0.1c0.7-0.1,1.4-0.4,2-0.8c0,0,0.1,0,0.1,0c0,1,0,2.1,0,3.1c0,0,0,0-0.1,0
			c-1.2,0.6-2.5,1-3.9,1c-0.9,0-1.7,0-2.5-0.2c-0.9-0.2-1.7-0.6-2.4-1.3c-0.4-0.4-0.8-0.9-1-1.5c-0.1-0.5-0.2-1.1-0.2-1.6
			c0-2.4,0-4.7,0-7.1c0,0,0-0.1,0-0.1c-0.7,0-1.5,0-2.2,0c0,0,0-0.1,0-0.1c0-0.9,0-1.7,0-2.6c0-0.2,0-0.2,0.2-0.3
			c1.3-0.5,2.4-1.3,3.1-2.6C110.3,56.7,110.5,55.8,110.6,54.8z"/>
	</g>
</g>
<path fill="#71C9BD" d="M158,57.8c-1.9-1.9-4.4-3-7.1-3c-5.5,0-10,4.5-10,10c0,5.5,4.5,10,10,10h0c5.5,0,10-4.5,10-10
	C160.9,62.2,159.9,59.7,158,57.8z M155.4,71.8c-0.2-2-0.7-4.1-1.6-6.3c0.7-0.1,1.4-0.1,2.1-0.1c1.1,0.1,2.1,0.3,3.3,0.7
	C158.8,68.5,157.5,70.4,155.4,71.8z M147.3,57.2L147.3,57.2c1.1,1.5,2.1,3.1,3,4.8c-1.5,0.5-3.1,0.7-4.7,0.7h0
	c-0.9,0-1.8-0.1-2.8-0.2c0.4-1.3,1-2.4,1.9-3.4C145.5,58.4,146.3,57.8,147.3,57.2z M151.9,61.4c-0.9-1.7-1.9-3.2-3-4.7
	c1-0.2,2-0.3,3-0.2c1.8,0.2,3.3,1,4.1,1.7C154.9,59.6,153.5,60.6,151.9,61.4z M151.1,63.5l0.4,0.9c-1.4,0.5-2.7,1.3-4,2.4
	c-1.1,1-2.1,2.1-3,3.4c-1.4-1.8-2.1-3.7-1.9-6C145.7,64.6,148.5,64.4,151.1,63.5z M153.2,63.9l-0.5-1.1c1.7-0.8,3.3-2,4.6-3.5
	c1.2,1.4,1.9,3.1,2,5c-1.3-0.4-2.6-0.6-3.9-0.6C154.7,63.7,153.9,63.8,153.2,63.9z M145.7,71.3c0.9-1.4,2-2.7,3.3-3.7
	c1-0.8,2.1-1.4,3.2-1.8l0.1,0.3c0.2,0.4,0.3,0.9,0.5,1.3c0.5,1.5,0.9,3.1,1,4.6l0,0.2c0,0.1,0,0.2,0,0.3c-1,0.3-1.9,0.5-2.9,0.5
	c0,0,0,0,0,0c-0.2,0-0.5,0-0.7,0C148.6,73,147.1,72.4,145.7,71.3C145.8,71.3,145.7,71.3,145.7,71.3z M150.9,74.5L150.9,74.5
	L150.9,74.5L150.9,74.5z"/>
<g id="_x34_nSiYn.tif">
	<g>
		<path fill="#71C9BD" d="M82.5,74.8c-5.3,0-10.6,0-15.9,0c0,0,0,0,0,0c-0.5-0.1-0.9-0.3-1.3-0.6c-0.4-0.4-0.6-0.8-0.7-1.3
			c0,0,0-0.1,0-0.1c0-5.2,0-10.5,0-15.7c0-0.1,0-0.1,0-0.2c0.2-0.9,0.9-1.7,1.8-1.9c0.1,0,0.2,0,0.3,0c5.2,0,10.5,0,15.7,0
			c0.1,0,0.2,0,0.3,0c0.9,0.2,1.6,0.9,1.8,1.8c0,0.1,0,0.1,0,0.2c0,5.3,0,10.6,0,15.9c0,0,0,0.1,0,0.1c-0.2,0.9-0.9,1.6-1.8,1.8
			C82.7,74.7,82.6,74.8,82.5,74.8z M66.9,63.3c0,0,0,0.1,0,0.1c0,2.8,0,5.5,0,8.3c0,0,0,0.1,0,0.1c0,0.2,0.1,0.4,0.3,0.5
			c0.2,0.1,0.4,0.2,0.6,0.2c4.6,0,9.1,0,13.7,0c0,0,0.1,0,0.1,0c0.2,0,0.4-0.1,0.5-0.3c0.1-0.2,0.2-0.3,0.2-0.5c0-2.8,0-5.6,0-8.3
			c0,0,0,0,0,0c0,0,0,0,0-0.1c-0.6,0-1.1,0-1.7,0c0.3,1.3,0.3,2.5-0.2,3.7c-0.5,1.2-1.2,2.2-2.3,2.9c-1.9,1.3-4.5,1.4-6.5,0.2
			c-1-0.6-1.8-1.4-2.4-2.4c-0.7-1.4-0.9-2.9-0.5-4.4C68,63.3,67.5,63.3,66.9,63.3z M78.4,64.8c0-2.1-1.7-3.8-3.8-3.8
			c-2.2,0-3.8,1.8-3.8,3.8c0,2.1,1.7,3.8,3.8,3.8C76.7,68.6,78.4,66.9,78.4,64.8z M80.3,60.9c0.4,0,0.8,0,1.2,0
			c0.4,0,0.8-0.3,0.8-0.8c0-0.8,0-1.5,0-2.3c0-0.4-0.3-0.8-0.8-0.8c-0.8,0-1.5,0-2.3,0c-0.4,0-0.8,0.3-0.8,0.8c0,0.8,0,1.5,0,2.3
			c0,0.1,0,0.1,0,0.2c0.1,0.3,0.4,0.6,0.7,0.6C79.6,60.9,80,60.9,80.3,60.9z"/>
	</g>
</g>
<g id="RfzbII.tif">
	<g>
		<path fill="#71C9BD" d="M-45,152.7c0,0.4,0,0.8,0,1.2c0,0,0,0.1,0,0.1c0,0,0,0.1,0,0.1c0,0.3-0.1,0.5-0.1,0.8
			c-0.2,0.7-0.4,1.4-0.7,2.1c-0.4,0.9-0.9,1.8-1.5,2.7c-0.7,1.2-1.5,2.3-2.4,3.3c-0.8,1-1.7,2.1-2.6,3c-0.6,0.6-1.3,1.2-2,1.7
			c-0.5,0.4-1,0.7-1.6,1c-0.4,0.2-0.8,0.3-1.3,0.4c-0.1,0-0.2,0-0.3,0c-0.2,0-0.3,0-0.5,0c0,0,0,0,0,0c-0.1,0-0.2,0-0.2,0
			c-0.4-0.1-0.7-0.3-1-0.5c-0.3-0.3-0.6-0.6-0.8-1c-0.4-0.5-0.6-1.1-0.9-1.7c-0.1-0.2-0.2-0.4-0.2-0.6c-0.6-2.1-1.1-4.2-1.7-6.2
			c-0.2-0.7-0.4-1.3-0.6-2c-0.2-0.5-0.4-0.9-0.6-1.3c-0.1-0.2-0.3-0.5-0.5-0.7c-0.1-0.1-0.3-0.2-0.5-0.3c-0.1,0-0.3-0.1-0.4,0
			c-0.1,0.1-0.3,0.1-0.4,0.2c-0.4,0.2-0.7,0.5-1.1,0.7c0,0-0.1,0-0.1,0.1c0,0,0-0.1-0.1-0.1c-0.3-0.4-0.6-0.8-1-1.2c0,0,0,0-0.1-0.1
			c0,0,0,0,0,0c0,0,0,0,0.1,0c0.1-0.1,0.2-0.2,0.3-0.3c0.8-0.7,1.5-1.3,2.3-2c0.5-0.4,1-0.9,1.5-1.3c0.5-0.4,0.9-0.7,1.4-1
			c0.3-0.1,0.5-0.3,0.8-0.4c0.4-0.1,0.8-0.1,1.2-0.1c0.4,0.1,0.8,0.2,1.2,0.5c0.3,0.3,0.6,0.6,0.8,1c0.3,0.6,0.5,1.2,0.6,1.9
			c0.1,0.4,0.1,0.8,0.2,1.3c0.1,0.8,0.3,1.6,0.4,2.3c0.1,0.8,0.3,1.7,0.5,2.5c0.1,0.6,0.3,1.1,0.5,1.7c0.1,0.3,0.3,0.6,0.4,0.9
			c0.1,0.1,0.2,0.2,0.3,0.3c0.2,0.1,0.4,0.2,0.6,0.1c0.1-0.1,0.2-0.1,0.3-0.2c0.2-0.2,0.4-0.4,0.6-0.6c0.4-0.4,0.7-0.9,1-1.3
			c0.4-0.7,0.8-1.3,1.1-2c0.2-0.5,0.4-1,0.5-1.6c0-0.3,0-0.6,0-0.9c-0.1-0.6-0.4-0.9-1-1c-0.4-0.1-0.7-0.1-1.1,0
			c-0.4,0.1-0.7,0.2-1.1,0.3c0,0,0,0-0.1,0c0,0,0-0.1,0-0.1c0.2-0.5,0.4-1.1,0.6-1.6c0.3-0.7,0.8-1.4,1.3-2c1-1.1,2.3-1.7,3.8-1.8
			c0,0,0.1,0,0.1,0c0.3,0,0.5,0,0.8,0c0,0,0.1,0,0.1,0c0.3,0,0.5,0.1,0.8,0.1c0.8,0.2,1.4,0.7,1.8,1.4c0.3,0.6,0.5,1.2,0.5,1.9
			C-45,152.6-45,152.7-45,152.7z"/>
	</g>
</g>
<g>
	<line fill="none" stroke="#58585B" stroke-miterlimit="10" x1="-54.6" y1="67.9" x2="-38.7" y2="67.9"/>
	<polyline fill="none" stroke="#58585B" stroke-miterlimit="10" points="-43.8,62.5 -38.7,67.9 -43.8,73.3 	"/>
</g>
<g>
	<line fill="none" stroke="#58585B" stroke-miterlimit="10" x1="-38.7" y1="49.4" x2="-54.6" y2="49.4"/>
	<polyline fill="none" stroke="#58585B" stroke-miterlimit="10" points="-49.5,54.8 -54.6,49.4 -49.5,44 	"/>
</g>
<g>
	<polyline fill="none" stroke="#71C9BD" stroke-miterlimit="10" points="5.8,11.1 0.7,5.7 5.8,0.3 	"/>
</g>
<g>
	<polyline fill="none" stroke="#71C9BD" stroke-miterlimit="10" points="19,0.3 24.1,5.7 19,11.1 	"/>
</g>
</svg>
