<svg version="1.1" id="Layer_1" xmlns:x="&ns_extend;" xmlns:i="&ns_ai;" xmlns:graph="&ns_graphs;"
	 xmlns="http://www.w3.org/2000/svg" xmlns:xlink="http://www.w3.org/1999/xlink" x="0px" y="0px" viewBox="0 0 20.9 20"
	 enable-background="new 0 0 20.9 20" xml:space="preserve">
<metadata>
	<sfw  xmlns="&ns_sfw;">
		<slices></slices>
		<sliceSourceBounds  width="16383" height="20" x="-7795" y="-221.7" bottomLeftOrigin="true"></sliceSourceBounds>
	</sfw>
</metadata>
<g>
	<path d="M11.7,6.5c0,0.6,0,1.3,0,1.9c0,0,0-0.1,0.1-0.1c0.4-0.6,0.8-1,1.4-1.4c0.6-0.4,1.2-0.6,1.9-0.7
		c0.9-0.1,1.7,0,2.5,0.2c1.3,0.4,2.2,1.3,2.8,2.6c0.3,0.7,0.5,1.4,0.5,2.1c0,0.4,0.1,0.8,0.1,1.2c0,2.5,0,5,0,7.4c0,0,0,0.1,0,0.1
		c-1.5,0-3,0-4.5,0c0,0,0-0.1,0-0.1c0-2.4,0-4.8,0-7.2c0-0.5-0.1-1-0.2-1.5c-0.3-0.9-1-1.4-1.9-1.4c-1.2-0.1-2.2,0.7-2.5,1.9
		c-0.1,0.3-0.1,0.5-0.1,0.8c0,2.5,0,5,0,7.5c0,0,0,0.1,0,0.1c-1.5,0-3,0-4.5,0c0-4.5,0-9,0-13.5C8.7,6.5,10.2,6.5,11.7,6.5z"/>
	<path d="M0.3,6.5c1.5,0,3,0,4.5,0c0,4.5,0,9,0,13.5c-1.5,0-3,0-4.5,0C0.3,15.5,0.3,11,0.3,6.5z"/>
	<path d="M2.5,0c0.5,0,1,0.1,1.4,0.4c0.6,0.4,1,0.9,1,1.7c0.1,0.7-0.1,1.4-0.6,1.9C4.1,4.3,3.6,4.5,3.1,4.6
		C2.5,4.7,1.8,4.7,1.3,4.4C0.4,4-0.1,3.1,0,2.2c0.1-1.1,0.8-1.9,2-2.1C2.2,0,2.4,0,2.5,0z"/>
</g>
</svg>
