<?xml version="1.0" encoding="UTF-8" standalone="no"?>
<svg width="21px" height="20px" viewBox="0 0 21 20" version="1.1" xmlns="http://www.w3.org/2000/svg" xmlns:xlink="http://www.w3.org/1999/xlink" xmlns:sketch="http://www.bohemiancoding.com/sketch/ns">
    <!-- Generator: Sketch 3.2.2 (9983) - http://www.bohemiancoding.com/sketch -->
    <title>linkedin</title>
    <desc>Created with Sketch.</desc>
    <defs></defs>
    <g id="Page-1" stroke="none" stroke-width="1" fill="none" fill-rule="evenodd" sketch:type="MSPage">
        <g id="linkedin" sketch:type="MSLayerGroup" transform="translate(-1.000000, 0.000000)" fill="#71C9BD">
            <g id="Group" sketch:type="MSShapeGroup">
                <path d="M12.7,6.5 L12.7,8.4 C12.7,8.4 12.7,8.3 12.8,8.3 C13.2,7.7 13.6,7.3 14.2,6.9 C14.8,6.5 15.4,6.3 16.1,6.2 C17,6.1 17.8,6.2 18.6,6.4 C19.9,6.8 20.8,7.7 21.4,9 C21.7,9.7 21.9,10.4 21.9,11.1 C21.9,11.5 22,11.9 22,12.3 L22,19.7 L22,19.8 L17.5,19.8 L17.5,19.7 L17.5,12.5 C17.5,12 17.4,11.5 17.3,11 C17,10.1 16.3,9.6 15.4,9.6 C14.2,9.5 13.2,10.3 12.9,11.5 C12.8,11.8 12.8,12 12.8,12.3 L12.8,19.8 L12.8,19.9 L8.3,19.9 L8.3,6.4 C9.7,6.5 11.2,6.5 12.7,6.5 L12.7,6.5 Z" id="Shape"></path>
                <path d="M1.3,6.5 L5.8,6.5 L5.8,20 L1.3,20 L1.3,6.5 L1.3,6.5 Z" id="Shape"></path>
                <path d="M3.5,0 C4,0 4.5,0.1 4.9,0.4 C5.5,0.8 5.9,1.3 5.9,2.1 C6,2.8 5.8,3.5 5.3,4 C5.1,4.3 4.6,4.5 4.1,4.6 C3.5,4.7 2.8,4.7 2.3,4.4 C1.4,4 0.9,3.1 1,2.2 C1.1,1.1 1.8,0.3 3,0.1 C3.2,0 3.4,0 3.5,0 L3.5,0 Z" id="Shape"></path>
            </g>
        </g>
    </g>
</svg>