<?xml version="1.0" encoding="utf-8"?>
<!-- Generator: Adobe Illustrator 18.0.0, SVG Export Plug-In . SVG Version: 6.00 Build 0)  -->
<!DOCTYPE svg PUBLIC "-//W3C//DTD SVG 1.1//EN" "http://www.w3.org/Graphics/SVG/1.1/DTD/svg11.dtd" [
	<!ENTITY ns_extend "http://ns.adobe.com/Extensibility/1.0/">
	<!ENTITY ns_ai "http://ns.adobe.com/AdobeIllustrator/10.0/">
	<!ENTITY ns_graphs "http://ns.adobe.com/Graphs/1.0/">
	<!ENTITY ns_vars "http://ns.adobe.com/Variables/1.0/">
	<!ENTITY ns_imrep "http://ns.adobe.com/ImageReplacement/1.0/">
	<!ENTITY ns_sfw "http://ns.adobe.com/SaveForWeb/1.0/">
	<!ENTITY ns_custom "http://ns.adobe.com/GenericCustomNamespace/1.0/">
	<!ENTITY ns_adobe_xpath "http://ns.adobe.com/XPath/1.0/">
]>
<svg version="1.1" id="Layer_1" xmlns:x="&ns_extend;" xmlns:i="&ns_ai;" xmlns:graph="&ns_graphs;"
	 xmlns="http://www.w3.org/2000/svg" xmlns:xlink="http://www.w3.org/1999/xlink" x="0px" y="0px" viewBox="0 0 44 44"
	 enable-background="new 0 0 44 44" xml:space="preserve">
<metadata>
	<sfw  xmlns="&ns_sfw;">
		<slices></slices>
		<sliceSourceBounds  width="44.2" height="42.1" x="0" y="0.9" bottomLeftOrigin="true"></sliceSourceBounds>
	</sfw>
</metadata>
<g>
	<path fill="#44A092" d="M24.6,14.6c0,1.3,0,2.7,0,4c0,0,0-0.2,0.2-0.2c0.8-1.3,1.7-2.1,2.9-2.9c1.3-0.8,2.5-1.3,4-1.5
		c1.9-0.2,3.6,0,5.3,0.4c2.7,0.8,4.6,2.7,5.9,5.5c0.6,1.5,1.1,2.9,1.1,4.4c0,0.8,0.2,1.7,0.2,2.5c0,5.3,0,10.5,0,15.6v0.2
		c-3.2,0-6.3,0-9.5,0v-0.2c0-5.1,0-10.1,0-15.2c0-1.1-0.2-2.1-0.4-3.2c-0.6-1.9-2.1-2.9-4-2.9c-2.5-0.2-4.6,1.5-5.3,4
		c-0.2,0.6-0.2,1.1-0.2,1.7c0,5.3,0,10.5,0,15.8v0.2c-3.2,0-6.3,0-9.5,0c0-9.5,0-18.9,0-28.4C18.3,14.6,21.5,14.6,24.6,14.6z"/>
	<path fill="#44A092" d="M0.6,14.6c3.2,0,6.3,0,9.5,0c0,9.5,0,18.9,0,28.4c-3.2,0-6.3,0-9.5,0C0.6,33.6,0.6,24.1,0.6,14.6z"/>
	<path fill="#44A092" d="M5.3,0.9c1.1,0,2.1,0.2,2.9,0.8c1.3,0.8,2.1,1.9,2.1,3.6c0.2,1.5-0.2,2.9-1.3,4c-0.4,0.6-1.5,1.1-2.5,1.3
		c-1.3,0.2-2.7,0.2-3.8-0.4C0.8,9.4-0.2,7.5,0,5.6c0.2-2.3,1.7-4,4.2-4.4C4.6,0.9,5.1,0.9,5.3,0.9z"/>
</g>
</svg>
