<?xml version="1.0" encoding="utf-8"?>
<!-- Generator: Adobe Illustrator 18.0.0, SVG Export Plug-In . SVG Version: 6.00 Build 0)  -->
<!DOCTYPE svg PUBLIC "-//W3C//DTD SVG 1.1//EN" "http://www.w3.org/Graphics/SVG/1.1/DTD/svg11.dtd" [
	<!ENTITY ns_extend "http://ns.adobe.com/Extensibility/1.0/">
	<!ENTITY ns_ai "http://ns.adobe.com/AdobeIllustrator/10.0/">
	<!ENTITY ns_graphs "http://ns.adobe.com/Graphs/1.0/">
	<!ENTITY ns_vars "http://ns.adobe.com/Variables/1.0/">
	<!ENTITY ns_imrep "http://ns.adobe.com/ImageReplacement/1.0/">
	<!ENTITY ns_sfw "http://ns.adobe.com/SaveForWeb/1.0/">
	<!ENTITY ns_custom "http://ns.adobe.com/GenericCustomNamespace/1.0/">
	<!ENTITY ns_adobe_xpath "http://ns.adobe.com/XPath/1.0/">
]>
<svg version="1.1" id="Layer_1" xmlns:x="&ns_extend;" xmlns:i="&ns_ai;" xmlns:graph="&ns_graphs;"
	 xmlns="http://www.w3.org/2000/svg" xmlns:xlink="http://www.w3.org/1999/xlink" x="0px" y="0px" viewBox="0 0 6.1 11.5"
	 enable-background="new 0 0 6.1 11.5" xml:space="preserve">
<metadata>
	<sfw  xmlns="&ns_sfw;">
		<slices></slices>
		<sliceSourceBounds  width="16383" height="169.1" x="-7795" y="-316" bottomLeftOrigin="true"></sliceSourceBounds>
	</sfw>
</metadata>
<g>
	<path fill="#71C9BD" d="M-19.2,61.3c0,0.6,0,1.3,0,1.9c0,0,0-0.1,0.1-0.1c0.4-0.6,0.8-1,1.4-1.4c0.6-0.4,1.2-0.6,1.9-0.7
		c0.9-0.1,1.7,0,2.5,0.2c1.3,0.4,2.2,1.3,2.8,2.6c0.3,0.7,0.5,1.4,0.5,2.1c0,0.4,0.1,0.8,0.1,1.2c0,2.5,0,5,0,7.4c0,0,0,0.1,0,0.1
		c-1.5,0-3,0-4.5,0c0,0,0-0.1,0-0.1c0-2.4,0-4.8,0-7.2c0-0.5-0.1-1-0.2-1.5c-0.3-0.9-1-1.4-1.9-1.4c-1.2-0.1-2.2,0.7-2.5,1.9
		c-0.1,0.3-0.1,0.5-0.1,0.8c0,2.5,0,5,0,7.5c0,0,0,0.1,0,0.1c-1.5,0-3,0-4.5,0c0-4.5,0-9,0-13.5C-22.2,61.3-20.7,61.3-19.2,61.3z"/>
	<path fill="#71C9BD" d="M-30.6,61.3c1.5,0,3,0,4.5,0c0,4.5,0,9,0,13.5c-1.5,0-3,0-4.5,0C-30.6,70.3-30.6,65.8-30.6,61.3z"/>
	<path fill="#71C9BD" d="M-28.4,54.8c0.5,0,1,0.1,1.4,0.4c0.6,0.4,1,0.9,1,1.7c0.1,0.7-0.1,1.4-0.6,1.9c-0.4,0.4-0.8,0.6-1.3,0.7
		c-0.6,0.1-1.2,0.1-1.8-0.2c-0.9-0.4-1.3-1.3-1.3-2.2c0.1-1.1,0.8-1.9,2-2.1C-28.7,54.8-28.5,54.8-28.4,54.8z"/>
</g>
<g>
	<path fill="#71C9BD" d="M-125.2,146.8c0,1.2,0,2.3,0,3.5c-0.2,0-0.4,0-0.6,0c-0.6,0-1.2,0-1.8,0c-0.5,0-0.7,0.2-0.7,0.7
		c0,0.8,0,1.5,0,2.3c1,0,2,0,3.1,0c-0.1,1.1-0.2,2.2-0.3,3.3c-0.9,0-1.8,0-2.8,0c0,3.4,0,6.7,0,10c-1.3,0-2.7,0-4,0
		c0-3.3,0-6.6,0-10c-0.7,0-1.4,0-2.1,0c0-1.2,0-2.3,0-3.4c0.7,0,1.4,0,2.1,0c0-0.4,0-0.7,0-1.1c0-0.7,0-1.3,0-2
		c0.1-1.8,1-3.1,2.9-3.3C-128.1,146.8-126.7,146.9-125.2,146.8z"/>
</g>
<g id="PfTRKw.tif">
	<g>
		<path fill="#71C9BD" d="M30,57.2C30,57.2,30,57.2,30,57.2c0,0.1,0,0.1-0.1,0.1c-0.5,0.8-1.1,1.4-1.9,2c-0.2,0.2-0.4,0.3-0.6,0.5
			c0,0,0,0.1,0,0.1c0,0.5,0,0.9,0,1.4c0,0.7-0.1,1.3-0.3,1.9c-0.3,1.6-0.9,3.1-1.7,4.5c-1.1,1.9-2.5,3.5-4.4,4.8
			c-2.2,1.4-4.5,2.2-7.1,2.3c0,0-0.1,0-0.1,0c-0.5,0-1,0-1.4,0c0,0-0.1,0-0.1,0c-0.3,0-0.5,0-0.8-0.1c-0.6-0.1-1.2-0.2-1.8-0.3
			c-1.5-0.4-2.9-1-4.2-1.8c0,0,0,0-0.1-0.1c0.9,0.1,1.8,0.1,2.6,0c0.9-0.1,1.7-0.4,2.5-0.7c0.8-0.3,2.1-1.1,2.2-1.3
			c-1.1,0-2-0.4-2.9-1c-0.9-0.6-1.4-1.5-1.8-2.5c0.8,0.1,1.5,0.1,2.2-0.1c-0.8-0.2-1.5-0.5-2.1-1c-0.6-0.5-1.1-1.1-1.4-1.8
			c-0.3-0.7-0.5-1.5-0.5-2.2c0.4,0.2,0.7,0.3,1.1,0.4c0.4,0.1,0.8,0.2,1.1,0.2c-1.1-0.8-1.8-1.8-2.1-3.1c-0.3-1.3-0.1-2.5,0.5-3.7
			c0,0,0,0,0,0c0,0,0,0,0.1,0.1c1.6,1.9,3.5,3.3,5.7,4.2c1,0.4,2,0.7,3,0.8c0.5,0.1,0.9,0.1,1.4,0.2c0.1,0,0.1,0,0.2,0c0,0,0,0,0,0
			c0,0,0,0,0,0c-0.1-0.6-0.1-1.3,0-1.9c0.2-0.9,0.6-1.8,1.2-2.5c0.9-1,1.9-1.5,3.2-1.7c0.1,0,0.2,0,0.2,0c0.2,0,0.4,0,0.6,0
			c0,0,0.1,0,0.1,0c0.2,0,0.3,0,0.5,0.1c1.1,0.2,2,0.7,2.7,1.4c0.1,0.1,0.1,0.1,0.2,0.1c0,0,0,0,0,0c1.1-0.2,2.1-0.6,3-1.1
			c0,0,0,0,0.1,0c-0.4,1.2-1.1,2.1-2.1,2.8c0.1,0,0.3,0,0.4-0.1C28.4,57.8,29.2,57.5,30,57.2C30,57.2,30,57.2,30,57.2z"/>
	</g>
</g>
<g id="GdFVXx.tif">
	<g>
		<path fill="#71C9BD" d="M-47.5,149.1c0.3,0,0.5,0,0.8,0c0,0,0,0,0.1,0c0.4,0,0.9,0.1,1.3,0.2c1,0.2,1.9,0.6,2.7,1.2
			c1.3,0.9,2.2,2.1,2.6,3.7c0.1,0.3,0.2,0.7,0.2,1c0,0,0,0,0,0.1c0,0.4,0,0.7,0,1.1c0,0,0,0.1,0,0.1c0,0.3,0,0.6-0.1,0.9
			c-0.1,0.6-0.2,1.2-0.4,1.8c-0.3,0.9-0.8,1.8-1.4,2.6c-0.6,0.7-1.2,1.2-2,1.5c-0.6,0.2-1.1,0.4-1.7,0.4c-0.4,0-0.7,0-1.1,0
			c-0.6-0.1-1.1-0.3-1.5-0.6c-0.3-0.2-0.5-0.4-0.6-0.7c0,0,0,0,0,0c0,0,0,0.1,0,0.1c-0.2,0.9-0.5,1.8-0.7,2.7
			c-0.2,0.6-0.4,1.2-0.7,1.8c-0.4,0.8-0.9,1.6-1.5,2.4c0,0-0.1,0.1-0.1,0.1c0,0-0.1,0-0.1,0c-0.1,0-0.1-0.1-0.1-0.2
			c0-0.2-0.1-0.4-0.1-0.6c0-0.4-0.1-0.8-0.1-1.3c0-0.5,0-0.9,0-1.4c0-0.3,0.1-0.7,0.2-1c0.1-0.6,0.3-1.2,0.4-1.8
			c0.3-1.4,0.7-2.9,1-4.3c0-0.1,0-0.2,0-0.3c-0.2-0.6-0.3-1.1-0.3-1.7c0-0.4,0.1-0.8,0.2-1.2c0.2-0.4,0.4-0.8,0.7-1.2
			c0.5-0.4,1-0.6,1.6-0.5c0.4,0.1,0.8,0.3,1,0.7c0.2,0.3,0.2,0.6,0.2,0.9c0,0.3,0,0.7-0.1,1c-0.1,0.5-0.2,0.9-0.4,1.4
			c-0.2,0.6-0.4,1.1-0.5,1.7c-0.1,0.3-0.1,0.6,0,0.9c0.2,0.6,0.6,1,1.1,1.2c0.5,0.2,1,0.1,1.4,0c0.5-0.2,0.9-0.4,1.2-0.8
			c0.3-0.3,0.5-0.7,0.7-1c0.5-0.9,0.7-1.9,0.9-3c0-0.3,0-0.5,0.1-0.8c0-0.6,0-1.1-0.2-1.7c-0.3-1.1-0.9-1.9-1.9-2.4
			c-0.6-0.3-1.2-0.5-1.9-0.6c-0.4-0.1-0.8-0.1-1.2,0c-0.5,0-0.9,0.1-1.4,0.2c-1.2,0.3-2.1,1-2.8,2c-0.6,0.8-0.9,1.6-1,2.6
			c-0.1,0.5-0.1,0.9,0,1.4c0.1,0.5,0.3,1,0.6,1.4c0.1,0.1,0.1,0.2,0.2,0.3c0.1,0.1,0.1,0.2,0.1,0.4c0,0,0,0.1,0,0.1
			c-0.1,0.3-0.2,0.6-0.2,0.9c0,0.1,0,0.1-0.1,0.2c-0.1,0.1-0.2,0.2-0.3,0.2c-0.1,0-0.2,0-0.2-0.1c-0.4-0.2-0.8-0.4-1.1-0.8
			c-0.4-0.4-0.6-0.9-0.8-1.4c-0.2-0.6-0.3-1.1-0.4-1.7c0-0.1,0-0.1,0-0.2c0-0.2,0-0.4,0-0.7c0-0.1,0-0.1,0-0.2c0-0.3,0.1-0.6,0.2-1
			c0.3-1.3,0.9-2.4,1.9-3.3c0.8-0.8,1.7-1.4,2.8-1.8c0.9-0.3,1.8-0.5,2.8-0.6C-47.6,149.2-47.6,149.1-47.5,149.1z"/>
	</g>
</g>
<g id="OZ9Xxg.tif">
	<g>
		<path fill="#71C9BD" d="M92,54.8c0.9,0,1.9,0,2.8,0c0,0,0,0,0,0c0,1.6,0,3.3,0,4.9c0,0,0,0,0,0.1c1.6,0,3.2,0,4.7,0
			c0,1.1,0,2.1,0,3.1c-1.6,0-3.2,0-4.7,0c0,0,0,0.1,0,0.1c0,1.7,0,3.5,0,5.2c0,0.6,0,1.1,0.1,1.7c0.1,0.5,0.3,0.9,0.7,1.1
			c0.2,0.1,0.4,0.2,0.6,0.3c0.6,0.2,1.2,0.2,1.9,0.1c0.7-0.1,1.4-0.4,2-0.8c0,0,0.1,0,0.1,0c0,1,0,2.1,0,3.1c0,0,0,0-0.1,0
			c-1.2,0.6-2.5,1-3.9,1c-0.9,0-1.7,0-2.5-0.2c-0.9-0.2-1.7-0.6-2.4-1.3c-0.4-0.4-0.8-0.9-1-1.5c-0.1-0.5-0.2-1.1-0.2-1.6
			c0-2.4,0-4.7,0-7.1c0,0,0-0.1,0-0.1c-0.7,0-1.5,0-2.2,0c0,0,0-0.1,0-0.1c0-0.9,0-1.7,0-2.6c0-0.2,0-0.2,0.2-0.3
			c1.3-0.5,2.4-1.3,3.1-2.6C91.7,56.7,91.9,55.8,92,54.8z"/>
	</g>
</g>
<path fill="#71C9BD" d="M139.4,57.8c-1.9-1.9-4.4-3-7.1-3c-5.5,0-10,4.5-10,10c0,5.5,4.5,10,10,10h0c5.5,0,10-4.5,10-10
	C142.3,62.2,141.3,59.7,139.4,57.8z M136.8,71.8c-0.2-2-0.7-4.1-1.6-6.3c0.7-0.1,1.4-0.1,2.1-0.1c1.1,0.1,2.1,0.3,3.3,0.7
	C140.1,68.5,138.9,70.4,136.8,71.8z M128.7,57.2L128.7,57.2c1.1,1.5,2.1,3.1,3,4.8c-1.5,0.5-3.1,0.7-4.7,0.7h0
	c-0.9,0-1.8-0.1-2.8-0.2c0.4-1.3,1-2.4,1.9-3.4C126.8,58.4,127.7,57.8,128.7,57.2z M133.3,61.4c-0.9-1.7-1.9-3.2-3-4.7
	c1-0.2,2-0.3,3-0.2c1.8,0.2,3.3,1,4.1,1.7C136.2,59.6,134.9,60.6,133.3,61.4z M132.5,63.5l0.4,0.9c-1.4,0.5-2.7,1.3-4,2.4
	c-1.1,1-2.1,2.1-3,3.4c-1.4-1.8-2.1-3.7-1.9-6C127,64.6,129.8,64.4,132.5,63.5z M134.5,63.9l-0.5-1.1c1.7-0.8,3.3-2,4.6-3.5
	c1.2,1.4,1.9,3.1,2,5c-1.3-0.4-2.6-0.6-3.9-0.6C136,63.7,135.3,63.8,134.5,63.9z M127.1,71.3c0.9-1.4,2-2.7,3.3-3.7
	c1-0.8,2.1-1.4,3.2-1.8l0.1,0.3c0.2,0.4,0.3,0.9,0.5,1.3c0.5,1.5,0.9,3.1,1,4.6l0,0.2c0,0.1,0,0.2,0,0.3c-1,0.3-1.9,0.5-2.9,0.5
	c0,0,0,0,0,0c-0.2,0-0.5,0-0.7,0C129.9,73,128.4,72.4,127.1,71.3C127.1,71.3,127.1,71.3,127.1,71.3z M132.3,74.5L132.3,74.5
	L132.3,74.5L132.3,74.5z"/>
<g id="_x34_nSiYn.tif">
	<g>
		<path fill="#71C9BD" d="M63.9,74.8c-5.3,0-10.6,0-15.9,0c0,0,0,0,0,0c-0.5-0.1-0.9-0.3-1.3-0.6c-0.4-0.4-0.6-0.8-0.7-1.3
			c0,0,0-0.1,0-0.1c0-5.2,0-10.5,0-15.7c0-0.1,0-0.1,0-0.2c0.2-0.9,0.9-1.7,1.8-1.9c0.1,0,0.2,0,0.3,0c5.2,0,10.5,0,15.7,0
			c0.1,0,0.2,0,0.3,0c0.9,0.2,1.6,0.9,1.8,1.8c0,0.1,0,0.1,0,0.2c0,5.3,0,10.6,0,15.9c0,0,0,0.1,0,0.1c-0.2,0.9-0.9,1.6-1.8,1.8
			C64,74.7,64,74.8,63.9,74.8z M48.3,63.3c0,0,0,0.1,0,0.1c0,2.8,0,5.5,0,8.3c0,0,0,0.1,0,0.1c0,0.2,0.1,0.4,0.3,0.5
			c0.2,0.1,0.4,0.2,0.6,0.2c4.6,0,9.1,0,13.7,0c0,0,0.1,0,0.1,0c0.2,0,0.4-0.1,0.5-0.3c0.1-0.2,0.2-0.3,0.2-0.5c0-2.8,0-5.6,0-8.3
			c0,0,0,0,0,0c0,0,0,0,0-0.1c-0.6,0-1.1,0-1.7,0c0.3,1.3,0.3,2.5-0.2,3.7c-0.5,1.2-1.2,2.2-2.3,2.9c-1.9,1.3-4.5,1.4-6.5,0.2
			c-1-0.6-1.8-1.4-2.4-2.4c-0.7-1.4-0.9-2.9-0.5-4.4C49.4,63.3,48.8,63.3,48.3,63.3z M59.8,64.8c0-2.1-1.7-3.8-3.8-3.8
			c-2.2,0-3.8,1.8-3.8,3.8c0,2.1,1.7,3.8,3.8,3.8C58,68.6,59.8,66.9,59.8,64.8z M61.7,60.9c0.4,0,0.8,0,1.2,0c0.4,0,0.8-0.3,0.8-0.8
			c0-0.8,0-1.5,0-2.3c0-0.4-0.3-0.8-0.8-0.8c-0.8,0-1.5,0-2.3,0c-0.4,0-0.8,0.3-0.8,0.8c0,0.8,0,1.5,0,2.3c0,0.1,0,0.1,0,0.2
			c0.1,0.3,0.4,0.6,0.7,0.6C60.9,60.9,61.3,60.9,61.7,60.9z"/>
	</g>
</g>
<g id="RfzbII.tif">
	<g>
		<path fill="#71C9BD" d="M-63.7,152.7c0,0.4,0,0.8,0,1.2c0,0,0,0.1,0,0.1c0,0,0,0.1,0,0.1c0,0.3-0.1,0.5-0.1,0.8
			c-0.2,0.7-0.4,1.4-0.7,2.1c-0.4,0.9-0.9,1.8-1.5,2.7c-0.7,1.2-1.5,2.3-2.4,3.3c-0.8,1-1.7,2.1-2.6,3c-0.6,0.6-1.3,1.2-2,1.7
			c-0.5,0.4-1,0.7-1.6,1c-0.4,0.2-0.8,0.3-1.3,0.4c-0.1,0-0.2,0-0.3,0c-0.2,0-0.3,0-0.5,0c0,0,0,0,0,0c-0.1,0-0.2,0-0.2,0
			c-0.4-0.1-0.7-0.3-1-0.5c-0.3-0.3-0.6-0.6-0.8-1c-0.4-0.5-0.6-1.1-0.9-1.7c-0.1-0.2-0.2-0.4-0.2-0.6c-0.6-2.1-1.1-4.2-1.7-6.2
			c-0.2-0.7-0.4-1.3-0.6-2c-0.2-0.5-0.4-0.9-0.6-1.3c-0.1-0.2-0.3-0.5-0.5-0.7c-0.1-0.1-0.3-0.2-0.5-0.3c-0.1,0-0.3-0.1-0.4,0
			c-0.1,0.1-0.3,0.1-0.4,0.2c-0.4,0.2-0.7,0.5-1.1,0.7c0,0-0.1,0-0.1,0.1c0,0,0-0.1-0.1-0.1c-0.3-0.4-0.6-0.8-1-1.2c0,0,0,0-0.1-0.1
			c0,0,0,0,0,0c0,0,0,0,0.1,0c0.1-0.1,0.2-0.2,0.3-0.3c0.8-0.7,1.5-1.3,2.3-2c0.5-0.4,1-0.9,1.5-1.3c0.5-0.4,0.9-0.7,1.4-1
			c0.3-0.1,0.5-0.3,0.8-0.4c0.4-0.1,0.8-0.1,1.2-0.1c0.4,0.1,0.8,0.2,1.2,0.5c0.3,0.3,0.6,0.6,0.8,1c0.3,0.6,0.5,1.2,0.6,1.9
			c0.1,0.4,0.1,0.8,0.2,1.3c0.1,0.8,0.3,1.6,0.4,2.3c0.1,0.8,0.3,1.7,0.5,2.5c0.1,0.6,0.3,1.1,0.5,1.7c0.1,0.3,0.3,0.6,0.4,0.9
			c0.1,0.1,0.2,0.2,0.3,0.3c0.2,0.1,0.4,0.2,0.6,0.1c0.1-0.1,0.2-0.1,0.3-0.2c0.2-0.2,0.4-0.4,0.6-0.6c0.4-0.4,0.7-0.9,1-1.3
			c0.4-0.7,0.8-1.3,1.1-2c0.2-0.5,0.4-1,0.5-1.6c0-0.3,0-0.6,0-0.9c-0.1-0.6-0.4-0.9-1-1c-0.4-0.1-0.7-0.1-1.1,0
			c-0.4,0.1-0.7,0.2-1.1,0.3c0,0,0,0-0.1,0c0,0,0-0.1,0-0.1c0.2-0.5,0.4-1.1,0.6-1.6c0.3-0.7,0.8-1.4,1.3-2c1-1.1,2.3-1.7,3.8-1.8
			c0,0,0.1,0,0.1,0c0.3,0,0.5,0,0.8,0c0,0,0.1,0,0.1,0c0.3,0,0.5,0.1,0.8,0.1c0.8,0.2,1.4,0.7,1.8,1.4c0.3,0.6,0.5,1.2,0.5,1.9
			C-63.7,152.6-63.7,152.7-63.7,152.7z"/>
	</g>
</g>
<g>
	<line fill="none" stroke="#58585B" stroke-miterlimit="10" x1="-73.3" y1="67.9" x2="-57.3" y2="67.9"/>
	<polyline fill="none" stroke="#58585B" stroke-miterlimit="10" points="-62.4,62.5 -57.3,67.9 -62.4,73.3 	"/>
</g>
<g>
	<line fill="none" stroke="#58585B" stroke-miterlimit="10" x1="-57.3" y1="49.4" x2="-73.3" y2="49.4"/>
	<polyline fill="none" stroke="#58585B" stroke-miterlimit="10" points="-68.2,54.8 -73.3,49.4 -68.2,44 	"/>
</g>
<g>
	<polyline fill="none" stroke="#71C9BD" stroke-miterlimit="10" points="-12.9,11.1 -18,5.7 -12.9,0.3 	"/>
</g>
<g>
	<polyline fill="none" stroke="#71C9BD" stroke-miterlimit="10" points="0.4,0.3 5.4,5.7 0.4,11.1 	"/>
</g>
</svg>
