<?xml version="1.0" encoding="utf-8"?>
<!-- Generator: Adobe Illustrator 18.0.0, SVG Export Plug-In . SVG Version: 6.00 Build 0)  -->
<!DOCTYPE svg PUBLIC "-//W3C//DTD SVG 1.1//EN" "http://www.w3.org/Graphics/SVG/1.1/DTD/svg11.dtd" [
	<!ENTITY ns_extend "http://ns.adobe.com/Extensibility/1.0/">
	<!ENTITY ns_ai "http://ns.adobe.com/AdobeIllustrator/10.0/">
	<!ENTITY ns_graphs "http://ns.adobe.com/Graphs/1.0/">
	<!ENTITY ns_vars "http://ns.adobe.com/Variables/1.0/">
	<!ENTITY ns_imrep "http://ns.adobe.com/ImageReplacement/1.0/">
	<!ENTITY ns_sfw "http://ns.adobe.com/SaveForWeb/1.0/">
	<!ENTITY ns_custom "http://ns.adobe.com/GenericCustomNamespace/1.0/">
	<!ENTITY ns_adobe_xpath "http://ns.adobe.com/XPath/1.0/">
]>
<svg version="1.1" id="Layer_1" xmlns:x="&ns_extend;" xmlns:i="&ns_ai;" xmlns:graph="&ns_graphs;"
	 xmlns="http://www.w3.org/2000/svg" xmlns:xlink="http://www.w3.org/1999/xlink" x="0px" y="0px" viewBox="0 0 280 280"
	 enable-background="new 0 0 280 280" xml:space="preserve">
<metadata>
	<sfw  xmlns="&ns_sfw;">
		<slices></slices>
		<sliceSourceBounds  height="280" width="16383" x="-7579" y="-534.5" bottomLeftOrigin="true"></sliceSourceBounds>
	</sfw>
</metadata>
<rect x="0" y="0" fill="none" width="280" height="280"/>
<g>
	<g>
		<rect x="137.1" y="86.3" fill="#D0D2D3" width="5.7" height="5.7"/>
	</g>
	<g>
		<g>
			<rect x="47.8" y="168.4" fill="#D0D2D3" width="5.7" height="5.7"/>
		</g>
		<g>
			<rect x="226.4" y="168.4" fill="#D0D2D3" width="5.7" height="5.7"/>
		</g>
	</g>
	<g>
		<g>
			<rect x="47.8" y="86.3" fill="#D0D2D3" width="5.7" height="5.7"/>
		</g>
		<g>
			<rect x="226.4" y="86.3" fill="#D0D2D3" width="5.7" height="5.7"/>
		</g>
	</g>
	<g>
		
			<rect x="137.6" y="126.8" transform="matrix(0.7071 0.7071 -0.7071 0.7071 132.3185 -61.1717)" fill="#D0D2D3" width="4.7" height="4.7"/>
	</g>
	<g>
		<path fill="#5A595C" d="M100.6,149.2c-0.1,0-0.3,0-0.4,0c-23.9-0.2-41.2-17.8-42-18.6l3-2.9c0.2,0.2,16.9,17.2,39.1,17.3
			c13.1,0,25.8-5.7,37.5-17.4c21.6-21.6,43.4-20.5,57.9-15.7c15.5,5.1,25.8,15.2,26.3,15.7l-2.9,2.9c-0.1-0.1-10.1-9.9-24.8-14.7
			c-19.4-6.4-37.4-1.4-53.5,14.7C128.3,142.9,114.8,149.2,100.6,149.2z"/>
	</g>
	<g>
		<g>
			<polygon fill="#72C8BE" points="76.2,193.4 74.7,191.9 203.8,64.9 205.3,66.4 			"/>
		</g>
		<g>
			<g>
				<circle fill="#72C8BE" cx="204.5" cy="65.7" r="3.1"/>
			</g>
		</g>
		<g>
			<g>
				<circle fill="#72C8BE" cx="75.6" cy="192.5" r="3.1"/>
			</g>
		</g>
	</g>
	<g>
		<rect x="137.1" y="125.6" fill="#72C8BE" width="5.7" height="5.7"/>
	</g>
	<g>
		<g>
			<path fill="#5A595C" d="M149,207.5h-17.8l-11.2-21.6l20.1-48.3l20.1,48.3L149,207.5z M133.7,203.3h12.8l9.1-17.7L140,148.3
				l-15.5,37.4L133.7,203.3z"/>
		</g>
		<g>
			<g>
				<rect x="137.9" y="146.7" fill="#5A595C" width="4.1" height="33"/>
			</g>
			<g>
				<g>
					<circle fill="#5A595C" cx="140" cy="179.5" r="3.1"/>
				</g>
			</g>
		</g>
		<g>
			<path fill="#5A595C" d="M159,217.4h-38v-14h38V217.4z M125.1,213.2h29.8v-5.8h-29.8V213.2z"/>
		</g>
	</g>
</g>
</svg>
