<?xml version="1.0" encoding="utf-8"?>
<!-- Generator: Adobe Illustrator 18.0.0, SVG Export Plug-In . SVG Version: 6.00 Build 0)  -->
<!DOCTYPE svg PUBLIC "-//W3C//DTD SVG 1.1//EN" "http://www.w3.org/Graphics/SVG/1.1/DTD/svg11.dtd" [
	<!ENTITY ns_extend "http://ns.adobe.com/Extensibility/1.0/">
	<!ENTITY ns_ai "http://ns.adobe.com/AdobeIllustrator/10.0/">
	<!ENTITY ns_graphs "http://ns.adobe.com/Graphs/1.0/">
	<!ENTITY ns_vars "http://ns.adobe.com/Variables/1.0/">
	<!ENTITY ns_imrep "http://ns.adobe.com/ImageReplacement/1.0/">
	<!ENTITY ns_sfw "http://ns.adobe.com/SaveForWeb/1.0/">
	<!ENTITY ns_custom "http://ns.adobe.com/GenericCustomNamespace/1.0/">
	<!ENTITY ns_adobe_xpath "http://ns.adobe.com/XPath/1.0/">
]>
<svg version="1.1" id="Layer_1" xmlns:x="&ns_extend;" xmlns:i="&ns_ai;" xmlns:graph="&ns_graphs;"
	 xmlns="http://www.w3.org/2000/svg" xmlns:xlink="http://www.w3.org/1999/xlink" x="0px" y="0px" viewBox="0 0 720 720"
	 enable-background="new 0 0 720 720" xml:space="preserve">
<metadata>
	<sfw  xmlns="&ns_sfw;">
		<slices></slices>
		<sliceSourceBounds  height="720" width="720" x="0" y="0" bottomLeftOrigin="true"></sliceSourceBounds>
	</sfw>
</metadata>
<g>
	<rect fill="#F6F7F8" width="720" height="720"/>
	<g>
		<g>
			<rect x="352.5" y="221.9" fill="#D1D3D4" width="14.7" height="14.7"/>
		</g>
		<g>
			<g>
				<rect x="122.9" y="433" fill="#D1D3D4" width="14.7" height="14.7"/>
			</g>
			<g>
				<rect x="582.2" y="433" fill="#D1D3D4" width="14.7" height="14.7"/>
			</g>
		</g>
		<g>
			<g>
				<rect x="122.9" y="221.9" fill="#D1D3D4" width="14.7" height="14.7"/>
			</g>
			<g>
				<rect x="582.2" y="221.9" fill="#D1D3D4" width="14.7" height="14.7"/>
			</g>
		</g>
		<g>
			
				<rect x="353.8" y="326" transform="matrix(-0.7071 -0.7071 0.7071 -0.7071 379.6062 821.2267)" fill="#D1D3D4" width="12.1" height="12.1"/>
		</g>
		<g>
			<path fill="#5A595C" d="M258.7,383.7c-0.3,0-0.8,0-1,0c-61.5-0.5-105.9-45.8-108-47.8l7.7-7.5c0.5,0.5,43.5,44.2,100.5,44.5
				c33.7,0,66.3-14.7,96.4-44.7c55.5-55.5,111.6-52.7,148.9-40.4c39.9,13.1,66.3,39.1,67.6,40.4l-7.5,7.5
				c-0.3-0.3-26-25.5-63.8-37.8c-49.9-16.5-96.2-3.6-137.6,37.8C329.9,367.5,295.2,383.7,258.7,383.7z"/>
		</g>
		<g>
			<g>
				<polygon fill="#72C9BF" points="195.9,497.3 192.1,493.5 524.1,166.9 527.9,170.7 				"/>
			</g>
			<g>
				<g>
					<circle fill="#72C9BF" cx="525.9" cy="168.9" r="8"/>
				</g>
			</g>
			<g>
				<g>
					<circle fill="#72C9BF" cx="194.4" cy="495" r="8"/>
				</g>
			</g>
		</g>
		<g>
			<rect x="352.5" y="323" fill="#72C9BF" width="14.7" height="14.7"/>
		</g>
		<g>
			<g>
				<polygon fill="#F5F5F5" points="314.2,477.8 360,367.5 405.8,477.8 379.8,528.2 340.5,528.2 				"/>
				<path fill="#5A595C" d="M383.1,533.6h-45.8L308.6,478l51.7-124.2L411.9,478L383.1,533.6z M343.8,522.8h32.9l23.4-45.5L360,381.3
					l-39.9,96.2L343.8,522.8z"/>
			</g>
			<g>
				<g>
					<rect x="354.6" y="377.2" fill="#5A595C" width="10.5" height="84.9"/>
				</g>
				<g>
					<g>
						<circle fill="#5A595C" cx="360" cy="461.6" r="8"/>
					</g>
				</g>
			</g>
			<g>
				<rect x="316.3" y="528.2" fill="#F5F5F5" width="87.2" height="25.5"/>
				<path fill="#5A595C" d="M408.9,559h-97.7v-36h97.7V559z M321.7,548.2h76.6v-14.9h-76.6V548.2L321.7,548.2z"/>
			</g>
		</g>
	</g>
</g>
</svg>
