<svg version="1.1" id="Layer_1" xmlns:x="&ns_extend;" xmlns:i="&ns_ai;" xmlns:graph="&ns_graphs;"
	 xmlns="http://www.w3.org/2000/svg" xmlns:xlink="http://www.w3.org/1999/xlink" x="0px" y="0px" viewBox="0 0 140 140"
	 enable-background="new 0 0 140 140" xml:space="preserve">
<metadata>
	<sfw  xmlns="&ns_sfw;">
		<slices></slices>
		<sliceSourceBounds  height="343.2" width="16383" x="-7579" y="-717.2" bottomLeftOrigin="true"></sliceSourceBounds>
	</sfw>
</metadata>
<rect x="0" y="0" fill="none" width="140" height="140"/>
<g>
	<g>
		<path fill="#A6A8AB" d="M111.7,44.1c-2.5,0-4.6-2.1-4.6-4.6c0-2.5,2.1-4.6,4.6-4.6s4.6,2.1,4.6,4.6
			C116.3,42,114.2,44.1,111.7,44.1z M111.7,35.9c-2,0-3.6,1.6-3.6,3.6c0,2,1.6,3.6,3.6,3.6c2,0,3.6-1.6,3.6-3.6
			C115.2,37.5,113.6,35.9,111.7,35.9z"/>
	</g>
	<g>
		<path fill="none" d="M90.6,46.9c-4.2,0-7.6,3.4-7.6,7.6s3.4,7.6,7.6,7.6c4.2,0,7.6-3.4,7.6-7.6S94.8,46.9,90.6,46.9z"/>
		<path fill="#A6A8AB" d="M93.8,62.6c3.2-1.3,5.5-4.4,5.5-8c0-4.8-3.9-8.6-8.6-8.6c-4.8,0-8.6,3.9-8.6,8.6c0,3,1.6,5.7,4,7.3
			l0.8-0.7c-2.2-1.3-3.8-3.8-3.8-6.6c0-4.2,3.4-7.6,7.6-7.6c4.2,0,7.6,3.4,7.6,7.6c0,2.6-1.3,4.9-3.4,6.3c-0.5,0.3-0.9,0.6-1.5,0.8
			L93.8,62.6z"/>
	</g>
	<g>
		<path fill="#A6A8AB" d="M60.4,47c-2.5,0-4.6-2.1-4.6-4.6s2.1-4.6,4.6-4.6c2.5,0,4.6,2.1,4.6,4.6S63,47,60.4,47z M60.4,38.8
			c-2,0-3.6,1.6-3.6,3.6c0,2,1.6,3.6,3.6,3.6c2,0,3.6-1.6,3.6-3.6C64,40.4,62.4,38.8,60.4,38.8z"/>
	</g>
	<g>
		<path fill="#A6A8AB" d="M60.4,104.9c-2.5,0-4.6-2.1-4.6-4.6s2.1-4.6,4.6-4.6c2.5,0,4.6,2.1,4.6,4.6S63,104.9,60.4,104.9z
			 M60.4,96.7c-2,0-3.6,1.6-3.6,3.6s1.6,3.6,3.6,3.6c2,0,3.6-1.6,3.6-3.6S62.4,96.7,60.4,96.7z"/>
	</g>
	<g>
		<path fill="#A6A8AB" d="M118.3,79c-1.7,0-3.1-1.4-3.1-3.1c0-1.7,1.4-3.1,3.1-3.1s3.1,1.4,3.1,3.1C121.4,77.6,120,79,118.3,79z
			 M118.3,73.9c-1.1,0-2,0.9-2,2c0,1.1,0.9,2,2,2c1.1,0,2-0.9,2-2C120.4,74.8,119.4,73.9,118.3,73.9z"/>
	</g>
	<g>
		<path fill="#5A595C" d="M47.3,77.4V46l27.2,15.7L47.3,77.4z M49.4,49.6v24.3l21.1-12.2L49.4,49.6z"/>
	</g>
	<g>
		<path fill="#5A595C" d="M96,93.7L61.9,75.9l32.5-20.7L96,93.7z M66,75.7l27.9,14.4l-1.4-31.3L66,75.7z"/>
	</g>
	<g>
		
			<rect x="100.4" y="93.1" transform="matrix(0.9905 0.1377 -0.1377 0.9905 13.8845 -13.441)" fill="#72C8BE" width="7.4" height="1"/>
	</g>
	<g>
		
			<rect x="93.8" y="97.7" transform="matrix(0.9904 0.1384 -0.1384 0.9904 14.9429 -12.0831)" fill="#72C8BE" width="1" height="7.4"/>
	</g>
	<g>
		
			<rect x="97.3" y="99.4" transform="matrix(0.603 0.7977 -0.7977 0.603 119.7835 -40.8857)" fill="#72C8BE" width="7.4" height="1"/>
	</g>
	<g>
		<g>
			<rect x="22.3" y="56" fill="#72C8BE" width="21.2" height="1"/>
		</g>
		<g>
			<rect x="18.6" y="61.2" fill="#72C8BE" width="21.2" height="1"/>
		</g>
		<g>
			<rect x="22.8" y="66.4" fill="#72C8BE" width="21.2" height="1"/>
		</g>
	</g>
</g>
</svg>
