<?xml version="1.0" encoding="utf-8"?>
<!-- Generator: Adobe Illustrator 18.0.0, SVG Export Plug-In . SVG Version: 6.00 Build 0)  -->
<!DOCTYPE svg PUBLIC "-//W3C//DTD SVG 1.1//EN" "http://www.w3.org/Graphics/SVG/1.1/DTD/svg11.dtd" [
	<!ENTITY ns_extend "http://ns.adobe.com/Extensibility/1.0/">
	<!ENTITY ns_ai "http://ns.adobe.com/AdobeIllustrator/10.0/">
	<!ENTITY ns_graphs "http://ns.adobe.com/Graphs/1.0/">
	<!ENTITY ns_vars "http://ns.adobe.com/Variables/1.0/">
	<!ENTITY ns_imrep "http://ns.adobe.com/ImageReplacement/1.0/">
	<!ENTITY ns_sfw "http://ns.adobe.com/SaveForWeb/1.0/">
	<!ENTITY ns_custom "http://ns.adobe.com/GenericCustomNamespace/1.0/">
	<!ENTITY ns_adobe_xpath "http://ns.adobe.com/XPath/1.0/">
]>
<svg version="1.1" id="Layer_1" xmlns:x="&ns_extend;" xmlns:i="&ns_ai;" xmlns:graph="&ns_graphs;"
	 xmlns="http://www.w3.org/2000/svg" xmlns:xlink="http://www.w3.org/1999/xlink" x="0px" y="0px" viewBox="0 0 140 140"
	 enable-background="new 0 0 140 140" xml:space="preserve">
<metadata>
	<sfw  xmlns="&ns_sfw;">
		<slices></slices>
		<sliceSourceBounds  height="336.3" width="16383" x="-7579" y="-710.3" bottomLeftOrigin="true"></sliceSourceBounds>
	</sfw>
</metadata>
<rect x="0" y="0" fill="none" width="140" height="140"/>
<g>
	<g>
		<rect x="68.6" y="43.1" fill="#D0D2D3" width="2.9" height="2.9"/>
	</g>
	<g>
		<g>
			<rect x="23.9" y="84.2" fill="#D0D2D3" width="2.9" height="2.9"/>
		</g>
		<g>
			<rect x="113.2" y="84.2" fill="#D0D2D3" width="2.9" height="2.9"/>
		</g>
	</g>
	<g>
		<g>
			<rect x="23.9" y="43.1" fill="#D0D2D3" width="2.9" height="2.9"/>
		</g>
		<g>
			<rect x="113.2" y="43.1" fill="#D0D2D3" width="2.9" height="2.9"/>
		</g>
	</g>
	<g>
		
			<rect x="68.8" y="63.4" transform="matrix(0.7071 0.7071 -0.7071 0.7071 66.1592 -30.5858)" fill="#D0D2D3" width="2.4" height="2.4"/>
	</g>
	<g>
		<path fill="#5A595C" d="M50.3,74.6c-0.1,0-0.1,0-0.2,0c-12-0.1-20.6-8.9-21-9.3l1.5-1.4c0.1,0.1,8.4,8.6,19.5,8.7
			c6.6,0,12.9-2.9,18.7-8.7C79.7,53,90.5,53.6,97.8,56c7.8,2.6,12.9,7.6,13.1,7.8l-1.5,1.5c-0.1,0-5.1-4.9-12.4-7.4
			c-9.7-3.2-18.7-0.7-26.8,7.4C64.1,71.5,57.4,74.6,50.3,74.6z"/>
	</g>
	<g>
		<g>
			
				<rect x="69.5" y="19.3" transform="matrix(0.7022 0.712 -0.712 0.7022 66.8157 -30.6098)" fill="#72C8BE" width="1" height="90.6"/>
		</g>
		<g>
			<g>
				<circle fill="#72C8BE" cx="102.2" cy="32.9" r="1.6"/>
			</g>
		</g>
		<g>
			<g>
				<circle fill="#72C8BE" cx="37.8" cy="96.3" r="1.6"/>
			</g>
		</g>
	</g>
	<g>
		<rect x="68.6" y="62.8" fill="#72C8BE" width="2.9" height="2.9"/>
	</g>
	<g>
		<g>
			<path fill="#5A595C" d="M74.5,103.7h-8.9L60,92.9l10-24.2l10,24.2L74.5,103.7z M66.8,101.7h6.4l4.5-8.8L70,74.1l-7.8,18.7
				L66.8,101.7z"/>
		</g>
		<g>
			<g>
				<rect x="69" y="73.4" fill="#5A595C" width="2.1" height="16.5"/>
			</g>
			<g>
				<g>
					<circle fill="#5A595C" cx="70" cy="89.8" r="1.6"/>
				</g>
			</g>
		</g>
		<g>
			<path fill="#5A595C" d="M79.5,108.7h-19v-7h19V108.7z M62.6,106.6h14.9v-2.9H62.6V106.6z"/>
		</g>
	</g>
</g>
</svg>
