<?xml version="1.0" encoding="utf-8"?>
<!-- Generator: Adobe Illustrator 18.0.0, SVG Export Plug-In . SVG Version: 6.00 Build 0)  -->
<!DOCTYPE svg PUBLIC "-//W3C//DTD SVG 1.1//EN" "http://www.w3.org/Graphics/SVG/1.1/DTD/svg11.dtd" [
	<!ENTITY ns_extend "http://ns.adobe.com/Extensibility/1.0/">
	<!ENTITY ns_ai "http://ns.adobe.com/AdobeIllustrator/10.0/">
	<!ENTITY ns_graphs "http://ns.adobe.com/Graphs/1.0/">
	<!ENTITY ns_vars "http://ns.adobe.com/Variables/1.0/">
	<!ENTITY ns_imrep "http://ns.adobe.com/ImageReplacement/1.0/">
	<!ENTITY ns_sfw "http://ns.adobe.com/SaveForWeb/1.0/">
	<!ENTITY ns_custom "http://ns.adobe.com/GenericCustomNamespace/1.0/">
	<!ENTITY ns_adobe_xpath "http://ns.adobe.com/XPath/1.0/">
]>
<svg version="1.1" id="Layer_1" xmlns:x="&ns_extend;" xmlns:i="&ns_ai;" xmlns:graph="&ns_graphs;"
	 xmlns="http://www.w3.org/2000/svg" xmlns:xlink="http://www.w3.org/1999/xlink" x="0px" y="0px" viewBox="0 0 280 280"
	 enable-background="new 0 0 280 280" xml:space="preserve">
<metadata>
	<sfw  xmlns="&ns_sfw;">
		<slices></slices>
		<sliceSourceBounds  height="280" width="16383" x="-7579" y="-534.5" bottomLeftOrigin="true"></sliceSourceBounds>
	</sfw>
</metadata>
<g>
	<rect x="0" y="0" fill="#F6F7F8" width="280" height="280"/>
	<g>
		<g>
			<polygon fill="#A7A9AC" points="207.3,164.2 178,164.2 178,57.3 207.3,57.3 207.3,61.4 182.2,61.4 182.2,160.1 207.3,160.1 			
				"/>
		</g>
		<g>
			<rect x="77.7" y="108.7" fill="#A7A9AC" width="129.5" height="4.1"/>
		</g>
		<g>
			<rect x="111.5" y="168.1" fill="#A7A9AC" width="36.2" height="4.1"/>
		</g>
		<g>
			<rect x="49.2" y="96.5" fill="#F5F5F5" width="28.5" height="28.5"/>
			<path fill="#5A595C" d="M79.8,127.1H47.1V94.4h32.7V127.1z M51.2,123h24.4V98.5H51.2V123z"/>
		</g>
		<g>
			<rect x="58.4" y="105.7" fill="#72C9BF" width="10.1" height="10.1"/>
		</g>
		<g>
			<rect x="202.3" y="96.5" fill="#F5F5F5" width="28.5" height="28.5"/>
			<path fill="#5A595C" d="M232.9,127.1h-32.7V94.4h32.7V127.1z M204.3,123h24.4V98.5h-24.4V123z"/>
		</g>
		<g>
			<rect x="202.3" y="147.8" fill="#F5F5F5" width="28.5" height="28.5"/>
			<path fill="#5A595C" d="M232.9,178.5h-32.7v-32.7h32.7V178.5z M204.3,174.3h24.4v-24.4h-24.4V174.3z"/>
		</g>
		<g>
			<polygon fill="#A7A9AC" points="161.6,222.7 109.5,222.7 109.5,109.6 113.6,109.6 113.6,218.6 161.6,218.6 			"/>
		</g>
		<g>
			<rect x="136.6" y="206.4" fill="#F5F5F5" width="28.5" height="28.5"/>
			<path fill="#5A595C" d="M167.2,237h-32.7v-32.7h32.7V237z M138.6,232.8H163v-24.4h-24.4V232.8z"/>
		</g>
		<g>
			<rect x="202.3" y="45.1" fill="#F5F5F5" width="28.5" height="28.5"/>
			<path fill="#5A595C" d="M232.9,75.7h-32.7V43h32.7V75.7z M204.3,71.6h24.4V47.2h-24.4V71.6z"/>
		</g>
		<g>
			<g>
				<rect x="209.2" y="52.1" fill="#72C9BF" width="14.4" height="2.1"/>
			</g>
			<g>
				<rect x="209.2" y="58.3" fill="#72C9BF" width="14.4" height="2.1"/>
			</g>
			<g>
				<rect x="209.5" y="64.5" fill="#72C9BF" width="14.4" height="2.1"/>
			</g>
		</g>
		<g>
			<g>
				<rect x="209.2" y="103.5" fill="#72C9BF" width="14.4" height="2.1"/>
			</g>
			<g>
				<rect x="209.2" y="109.7" fill="#72C9BF" width="14.4" height="2.1"/>
			</g>
			<g>
				<rect x="209.5" y="115.9" fill="#72C9BF" width="14.4" height="2.1"/>
			</g>
		</g>
		<g>
			<g>
				<rect x="209.2" y="154.9" fill="#72C9BF" width="14.4" height="2.1"/>
			</g>
			<g>
				<rect x="209.2" y="161.1" fill="#72C9BF" width="14.4" height="2.1"/>
			</g>
			<g>
				<rect x="209.5" y="167.3" fill="#72C9BF" width="14.4" height="2.1"/>
			</g>
		</g>
		<g>
			<rect x="136.4" y="155.9" fill="#F5F5F5" width="28.5" height="28.5"/>
			<path fill="#5A595C" d="M167,186.5h-32.7v-32.7H167V186.5z M138.5,182.4h24.4V158h-24.4V182.4z"/>
		</g>
		<g>
			<g>
				<rect x="143.3" y="163" fill="#72C9BF" width="14.4" height="2.1"/>
			</g>
			<g>
				<rect x="143.3" y="169.2" fill="#72C9BF" width="14.4" height="2.1"/>
			</g>
			<g>
				<rect x="143.6" y="175.4" fill="#72C9BF" width="14.4" height="2.1"/>
			</g>
		</g>
		<g>
			<g>
				<rect x="143.5" y="213.4" fill="#72C9BF" width="14.4" height="2.1"/>
			</g>
			<g>
				<rect x="143.5" y="219.6" fill="#72C9BF" width="14.4" height="2.1"/>
			</g>
			<g>
				<rect x="143.8" y="225.8" fill="#72C9BF" width="14.4" height="2.1"/>
			</g>
		</g>
	</g>
</g>
</svg>
