<?xml version="1.0" encoding="utf-8"?>
<!-- Generator: Adobe Illustrator 18.0.0, SVG Export Plug-In . SVG Version: 6.00 Build 0)  -->
<!DOCTYPE svg PUBLIC "-//W3C//DTD SVG 1.1//EN" "http://www.w3.org/Graphics/SVG/1.1/DTD/svg11.dtd" [
	<!ENTITY ns_extend "http://ns.adobe.com/Extensibility/1.0/">
	<!ENTITY ns_ai "http://ns.adobe.com/AdobeIllustrator/10.0/">
	<!ENTITY ns_graphs "http://ns.adobe.com/Graphs/1.0/">
	<!ENTITY ns_vars "http://ns.adobe.com/Variables/1.0/">
	<!ENTITY ns_imrep "http://ns.adobe.com/ImageReplacement/1.0/">
	<!ENTITY ns_sfw "http://ns.adobe.com/SaveForWeb/1.0/">
	<!ENTITY ns_custom "http://ns.adobe.com/GenericCustomNamespace/1.0/">
	<!ENTITY ns_adobe_xpath "http://ns.adobe.com/XPath/1.0/">
]>
<svg version="1.1" id="Layer_1" xmlns:x="&ns_extend;" xmlns:i="&ns_ai;" xmlns:graph="&ns_graphs;"
	 xmlns="http://www.w3.org/2000/svg" xmlns:xlink="http://www.w3.org/1999/xlink" x="0px" y="0px" viewBox="0 0 44 44"
	 enable-background="new 0 0 44 44" xml:space="preserve">
<metadata>
	<sfw  xmlns="&ns_sfw;">
		<slices></slices>
		<sliceSourceBounds  width="27.2" height="44" x="8.4" y="0" bottomLeftOrigin="true"></sliceSourceBounds>
	</sfw>
</metadata>
<g id="OZ9Xxg.tif">
	<g>
		<path fill="#44A092" d="M17.2,0c2.2,0,4.2,0,6.4,0l0,0c0,3.5,0,7.3,0,10.8c0,0,0,0,0,0.2c3.5,0,7.1,0,10.4,0c0,2.4,0,4.6,0,6.9
			c-3.5,0-7.1,0-10.4,0v0.2c0,3.8,0,7.7,0,11.5c0,1.3,0,2.4,0.2,3.8c0.2,1.1,0.7,2,1.5,2.4c0.4,0.2,0.9,0.4,1.3,0.7
			c1.3,0.4,2.7,0.4,4.2,0.2c1.5-0.2,3.1-0.9,4.4-1.8h0.2c0,2.2,0,4.6,0,6.9c0,0,0,0-0.2,0c-2.7,1.3-5.5,2.2-8.6,2.2
			c-2,0-3.8,0-5.5-0.4c-2-0.4-3.8-1.3-5.3-2.9c-0.9-0.9-1.8-2-2.2-3.3c-0.2-1.1-0.4-2.4-0.4-3.5c0-5.3,0-10.4,0-15.7v-0.2
			c-1.5,0-3.3,0-4.9,0v-0.2c0-2,0-3.8,0-5.8c0-0.4,0-0.4,0.4-0.7c2.9-0.7,5.3-2.4,6.9-5.3C16.6,4.2,17,2,17.2,0z"/>
	</g>
</g>
</svg>
