<svg width="28" height="44" viewBox="0 0 28 44" xmlns="http://www.w3.org/2000/svg"><title>tumblr</title><desc>Created with Sketch.</desc><g fill="none" fill-rule="evenodd"><g fill="#71C9BD"><g><path d="M9.2 0h6.4v11H26v6.9H15.6v11.7c0 1.3 0 2.4.2 3.8.2 1.1.7 2 1.5 2.4.4.2.9.4 1.3.7 1.3.4 2.7.4 4.2.2s3.1-.9 4.4-1.8h.2v6.9h-.2c-2.7 1.3-5.5 2.2-8.6 2.2-2 0-3.8 0-5.5-.4-2-.4-3.8-1.3-5.3-2.9-.9-.9-1.8-2-2.2-3.3-.2-1.1-.4-2.4-.4-3.5V18H.3v-6c0-.4 0-.4.4-.7C3.6 10.6 6 8.9 7.6 6c1-1.8 1.4-4 1.6-6z"/></g></g></g></svg>