<?xml version="1.0" encoding="utf-8"?>
<!-- Generator: Adobe Illustrator 18.0.0, SVG Export Plug-In . SVG Version: 6.00 Build 0)  -->
<!DOCTYPE svg PUBLIC "-//W3C//DTD SVG 1.1//EN" "http://www.w3.org/Graphics/SVG/1.1/DTD/svg11.dtd" [
	<!ENTITY ns_extend "http://ns.adobe.com/Extensibility/1.0/">
	<!ENTITY ns_ai "http://ns.adobe.com/AdobeIllustrator/10.0/">
	<!ENTITY ns_graphs "http://ns.adobe.com/Graphs/1.0/">
	<!ENTITY ns_vars "http://ns.adobe.com/Variables/1.0/">
	<!ENTITY ns_imrep "http://ns.adobe.com/ImageReplacement/1.0/">
	<!ENTITY ns_sfw "http://ns.adobe.com/SaveForWeb/1.0/">
	<!ENTITY ns_custom "http://ns.adobe.com/GenericCustomNamespace/1.0/">
	<!ENTITY ns_adobe_xpath "http://ns.adobe.com/XPath/1.0/">
]>
<svg version="1.1" id="Layer_1" xmlns:x="&ns_extend;" xmlns:i="&ns_ai;" xmlns:graph="&ns_graphs;"
	 xmlns="http://www.w3.org/2000/svg" xmlns:xlink="http://www.w3.org/1999/xlink" x="0px" y="0px" viewBox="62.5 0 487.1 788"
	 enable-background="new 62.5 0 487.1 788" xml:space="preserve">
<metadata>
	<sfw  xmlns="&ns_sfw;">
		<slices></slices>
		<sliceSourceBounds  width="487.1" height="788" x="62.5" y="4" bottomLeftOrigin="true"></sliceSourceBounds>
	</sfw>
</metadata>
<g id="OZ9Xxg.tif">
	<g>
		<path fill="#71C9BD" d="M220.9,0c39.6,0,75.2,0,114.8,0l0,0c0,63.4,0,130.7,0,194c0,0,0,0,0,4c63.4,0,126.7,0,186.1,0
			c0,43.6,0,83.2,0,122.8c-63.4,0-126.7,0-186.1,0v4c0,67.3,0,138.6,0,205.9c0,23.8,0,43.6,4,67.3c4,19.8,11.9,35.6,27.7,43.6
			c7.9,4,15.8,7.9,23.8,11.9c23.8,7.9,47.5,7.9,75.2,4c27.7-4,55.4-15.8,79.2-31.7h4c0,39.6,0,83.2,0,122.8c0,0,0,0-4,0
			c-47.5,23.8-99,39.6-154.4,39.6c-35.6,0-67.3,0-99-7.9c-35.6-7.9-67.3-23.8-95-51.5c-15.8-15.8-31.7-35.6-39.6-59.4
			c-4-19.8-7.9-43.6-7.9-63.4c0-95,0-186.1,0-281.2v-4c-27.7,0-59.4,0-87.1,0v-4c0-35.6,0-67.3,0-103c0-7.9,0-7.9,7.9-11.9
			c51.5-11.9,95-43.6,122.8-95C209,75.2,216.9,35.6,220.9,0z"/>
	</g>
</g>
</svg>
