<?xml version="1.0" encoding="utf-8"?>
<!-- Generator: Adobe Illustrator 18.0.0, SVG Export Plug-In . SVG Version: 6.00 Build 0)  -->
<!DOCTYPE svg PUBLIC "-//W3C//DTD SVG 1.1//EN" "http://www.w3.org/Graphics/SVG/1.1/DTD/svg11.dtd" [
	<!ENTITY ns_extend "http://ns.adobe.com/Extensibility/1.0/">
	<!ENTITY ns_ai "http://ns.adobe.com/AdobeIllustrator/10.0/">
	<!ENTITY ns_graphs "http://ns.adobe.com/Graphs/1.0/">
	<!ENTITY ns_vars "http://ns.adobe.com/Variables/1.0/">
	<!ENTITY ns_imrep "http://ns.adobe.com/ImageReplacement/1.0/">
	<!ENTITY ns_sfw "http://ns.adobe.com/SaveForWeb/1.0/">
	<!ENTITY ns_custom "http://ns.adobe.com/GenericCustomNamespace/1.0/">
	<!ENTITY ns_adobe_xpath "http://ns.adobe.com/XPath/1.0/">
]>
<svg version="1.1" id="Layer_1" xmlns:x="&ns_extend;" xmlns:i="&ns_ai;" xmlns:graph="&ns_graphs;"
	 xmlns="http://www.w3.org/2000/svg" xmlns:xlink="http://www.w3.org/1999/xlink" x="0px" y="0px" viewBox="0 0 24.6 20"
	 enable-background="new 0 0 24.6 20" xml:space="preserve">
<metadata>
	<sfw  xmlns="&ns_sfw;">
		<slices></slices>
		<sliceSourceBounds  width="16383" height="20" x="-7795" y="-221.7" bottomLeftOrigin="true"></sliceSourceBounds>
	</sfw>
</metadata>
<g id="PfTRKw.tif">
	<g>
		<path fill="#71C9BD" d="M24.6,2.4C24.6,2.4,24.6,2.4,24.6,2.4c0,0.1,0,0.1-0.1,0.1c-0.5,0.8-1.1,1.4-1.9,2
			c-0.2,0.2-0.4,0.3-0.6,0.5c0,0,0,0.1,0,0.1c0,0.5,0,0.9,0,1.4c0,0.7-0.1,1.3-0.3,1.9c-0.3,1.6-0.9,3.1-1.7,4.5
			c-1.1,1.9-2.5,3.5-4.4,4.8c-2.2,1.4-4.5,2.2-7.1,2.3c0,0-0.1,0-0.1,0c-0.5,0-1,0-1.4,0c0,0-0.1,0-0.1,0c-0.3,0-0.5,0-0.8-0.1
			c-0.6-0.1-1.2-0.2-1.8-0.3c-1.5-0.4-2.9-1-4.2-1.8c0,0,0,0-0.1-0.1c0.9,0.1,1.8,0.1,2.6,0c0.9-0.1,1.7-0.4,2.5-0.7
			c0.8-0.3,2.1-1.1,2.2-1.3c-1.1,0-2-0.4-2.9-1c-0.9-0.6-1.4-1.5-1.8-2.5c0.8,0.1,1.5,0.1,2.2-0.1c-0.8-0.2-1.5-0.5-2.1-1
			C2.3,10.6,1.8,10,1.5,9.3C1.1,8.6,1,7.8,1,7c0.4,0.2,0.7,0.3,1.1,0.4c0.4,0.1,0.8,0.2,1.1,0.2C2.2,6.9,1.4,5.9,1.1,4.6
			C0.9,3.3,1.1,2.1,1.7,0.9c0,0,0,0,0,0c0,0,0,0,0.1,0.1c1.6,1.9,3.5,3.3,5.7,4.2c1,0.4,2,0.7,3,0.8c0.5,0.1,0.9,0.1,1.4,0.2
			c0.1,0,0.1,0,0.2,0c0,0,0,0,0,0c0,0,0,0,0,0c-0.1-0.6-0.1-1.3,0-1.9c0.2-0.9,0.6-1.8,1.2-2.5c0.9-1,1.9-1.5,3.2-1.7
			c0.1,0,0.2,0,0.2,0c0.2,0,0.4,0,0.6,0c0,0,0.1,0,0.1,0c0.2,0,0.3,0,0.5,0.1c1.1,0.2,2,0.7,2.7,1.4c0.1,0.1,0.1,0.1,0.2,0.1
			c0,0,0,0,0,0c1.1-0.2,2.1-0.6,3-1.1c0,0,0,0,0.1,0c-0.4,1.2-1.1,2.1-2.1,2.8c0.1,0,0.3,0,0.4-0.1C23,3,23.8,2.7,24.6,2.4
			C24.5,2.4,24.6,2.4,24.6,2.4z"/>
	</g>
</g>
</svg>
