<svg width="25" height="20" viewBox="0 0 25 20" xmlns="http://www.w3.org/2000/svg"><title>twitter</title><desc>Created with Sketch.</desc><g fill="none" fill-rule="evenodd"><g fill="#71C9BD"><g><path d="M24.6 2.4c0 .1 0 .1-.1.1-.5.8-1.1 1.4-1.9 2-.2.2-.4.3-.6.5v1.5c0 .7-.1 1.3-.3 1.9-.3 1.6-.9 3.1-1.7 4.5-1.1 1.9-2.5 3.5-4.4 4.8-2.2 1.4-4.5 2.2-7.1 2.3H6.9c-.3 0-.5 0-.8-.1l-1.8-.3c-1.5-.4-2.9-1-4.2-1.8l-.1-.1c.9.1 1.8.1 2.6 0 .9-.1 1.7-.4 2.5-.7.8-.3 2.1-1.1 2.2-1.3-1.1 0-2-.4-2.9-1-.9-.6-1.4-1.5-1.8-2.5.8.1 1.5.1 2.2-.1-.8-.2-1.5-.5-2.1-1-.4-.5-.9-1.1-1.2-1.8C1.1 8.6 1 7.8 1 7c.4.2.7.3 1.1.4.4.1.8.2 1.1.2-1-.7-1.8-1.7-2.1-3-.2-1.3 0-2.5.6-3.7l.1.1c1.6 1.9 3.5 3.3 5.7 4.2 1 .4 2 .7 3 .8.5.1.9.1 1.4.2h.2c-.1-.6-.1-1.3 0-1.9.2-.9.6-1.8 1.2-2.5.9-1 1.9-1.5 3.2-1.7h.9c.2 0 .3 0 .5.1 1.1.2 2 .7 2.7 1.4.1.1.1.1.2.1 1.1-.2 2.1-.6 3-1.1h.1c-.4 1.2-1.1 2.1-2.1 2.8.1 0 .3 0 .4-.1l2.4-.9c-.1 0 0 0 0 0z"/></g></g></g></svg>