<?xml version="1.0" encoding="utf-8"?>
<!-- Generator: Adobe Illustrator 18.0.0, SVG Export Plug-In . SVG Version: 6.00 Build 0)  -->
<!DOCTYPE svg PUBLIC "-//W3C//DTD SVG 1.1//EN" "http://www.w3.org/Graphics/SVG/1.1/DTD/svg11.dtd" [
	<!ENTITY ns_extend "http://ns.adobe.com/Extensibility/1.0/">
	<!ENTITY ns_ai "http://ns.adobe.com/AdobeIllustrator/10.0/">
	<!ENTITY ns_graphs "http://ns.adobe.com/Graphs/1.0/">
	<!ENTITY ns_vars "http://ns.adobe.com/Variables/1.0/">
	<!ENTITY ns_imrep "http://ns.adobe.com/ImageReplacement/1.0/">
	<!ENTITY ns_sfw "http://ns.adobe.com/SaveForWeb/1.0/">
	<!ENTITY ns_custom "http://ns.adobe.com/GenericCustomNamespace/1.0/">
	<!ENTITY ns_adobe_xpath "http://ns.adobe.com/XPath/1.0/">
]>
<svg version="1.1" id="Layer_1" xmlns:x="&ns_extend;" xmlns:i="&ns_ai;" xmlns:graph="&ns_graphs;"
	 xmlns="http://www.w3.org/2000/svg" xmlns:xlink="http://www.w3.org/1999/xlink" x="0px" y="0px" viewBox="0 0 44 44"
	 enable-background="new 0 0 44 44" xml:space="preserve">
<metadata>
	<sfw  xmlns="&ns_sfw;">
		<slices></slices>
		<sliceSourceBounds  width="44" height="35.6" x="0" y="4.1" bottomLeftOrigin="true"></sliceSourceBounds>
	</sfw>
</metadata>
<g id="PfTRKw.tif">
	<g>
		<path fill="#44A092" d="M44,8.4L44,8.4c0,0.2,0,0.2-0.2,0.2c-0.9,1.4-2,2.5-3.4,3.6c-0.4,0.4-0.7,0.5-1.1,0.9v0.2
			c0,0.9,0,1.6,0,2.5c0,1.3-0.2,2.3-0.5,3.4c-0.5,2.9-1.6,5.5-3,8c-2,3.4-4.5,6.3-7.9,8.6c-3.9,2.5-8,3.9-12.7,4.1H15
			c-0.9,0-1.8,0-2.5,0h-0.2c-0.5,0-0.9,0-1.4-0.2c-1.1-0.2-2.1-0.4-3.2-0.5C5,38.5,2.5,37.4,0.2,36c0,0,0,0-0.2-0.2
			c1.6,0.2,3.2,0.2,4.7,0c1.6-0.2,3-0.7,4.5-1.3c1.4-0.5,3.8-2,3.9-2.3c-2,0-3.6-0.7-5.2-1.8s-2.5-2.7-3.2-4.5
			c1.4,0.2,2.7,0.2,3.9-0.2c-1.4-0.4-2.7-0.9-3.8-1.8c-0.7-0.9-1.6-2-2.1-3.2c-0.7-1.3-0.9-2.7-0.9-4.1c0.7,0.4,1.3,0.5,2,0.7
			s1.4,0.4,2,0.4c-1.8-1.3-3.2-3-3.8-5.4C1.6,10,2,7.9,3,5.7l0,0c0,0,0,0,0.2,0.2c2.9,3.4,6.3,5.9,10.2,7.5c1.8,0.7,3.6,1.3,5.4,1.4
			c0.9,0.2,1.6,0.2,2.5,0.4c0.2,0,0.2,0,0.4,0l0,0l0,0c-0.2-1.1-0.2-2.3,0-3.4c0.4-1.6,1.1-3.2,2.1-4.5c1.6-1.8,3.4-2.7,5.7-3
			c0.2,0,0.4,0,0.4,0c0.4,0,0.7,0,1.1,0h0.2c0.4,0,0.5,0,0.9,0.2c2,0.4,3.6,1.3,4.8,2.5C37,7.2,37,7.2,37.2,7.2l0,0
			c2-0.4,3.8-1.1,5.4-2c0,0,0,0,0.2,0c-0.7,2.1-2,3.8-3.8,5c0.2,0,0.5,0,0.7-0.2C41.1,9.5,42.6,8.9,44,8.4C43.8,8.4,44,8.4,44,8.4z"
			/>
	</g>
</g>
</svg>
